<svg xmlns="http://www.w3.org/2000/svg" viewBox="0 0 18 35"><defs><style>.cls-1{font-size:35px;fill:#bcbcbc;font-family:ArialMT, Arial;}.cls-2{fill:#231f20;}</style></defs><g id="Example_glyph" data-name="Example glyph"><g id="Line_2-2" data-name="Line 2"><text class="cls-1" transform="translate(-0.73 27.99)">d</text></g></g><g id="Artwork_glyph" data-name="Artwork glyph"><path class="cls-2" d="M7.9,27.93a7,7,0,0,1-3-.76C2.88,26,2.25,23.74,1.87,22.42c-1-3.48-.65-7.85,1.65-10.5a6.79,6.79,0,0,1,2.41-1.86A7.2,7.2,0,0,1,9,9.45c1.29,0,1.68.39,3.94.7.65.09,1.19.14,1.54.17V2.94h2l.17,25h-.83c-.28-.71-.75-1.6-1.49-1.72s-1.05.64-2.26,1.23A7.26,7.26,0,0,1,7.9,27.93Zm6.58-12.48a7.08,7.08,0,0,0-4-3.51,5.46,5.46,0,0,0-3.66,0A4.93,4.93,0,0,0,5,13.28c-2.64,2.85-1.45,7.66-1.19,8.59C4.11,23,4.58,24.64,6,25.44A4,4,0,0,0,8,25.93c3.11.05,5.61-2.21,6.45-3Z"/></g></svg>