<svg xmlns="http://www.w3.org/2000/svg" viewBox="0 0 18 35"><defs><style>.a{fill:#231f20;}</style></defs><path class="a" d="M7.94,27.93a5.58,5.58,0,0,1-2.6-.76C3.54,26,3,23.74,2.65,22.42c-.86-3.48-.57-7.85,1.45-10.5a6.1,6.1,0,0,1,2.11-1.86A5.66,5.66,0,0,1,8.9,9.45c1.13,0,1.48.39,3.46.7.57.09,1,.14,1.34.17V2.94h1.76l.15,25h-.72c-.25-.71-.67-1.6-1.31-1.72s-.92.64-2,1.23A5.66,5.66,0,0,1,7.94,27.93ZM13.7,15.45a6.58,6.58,0,0,0-3.5-3.51A4.24,4.24,0,0,0,7,12a4.43,4.43,0,0,0-1.61,1.3c-2.31,2.85-1.27,7.66-1,8.59C4.61,23,5,24.64,6.23,25.44a3.2,3.2,0,0,0,1.82.49c2.73.05,4.92-2.21,5.65-3Z"/></svg>