<svg xmlns="http://www.w3.org/2000/svg" viewBox="0 0 18 35"><defs><style>.a{fill:#231f20;}</style></defs><path class="a" d="M9.56,28.21c-2.95.19-4.88-2.34-5.27-2.85a10.85,10.85,0,0,1-1.87-7.21c.07-1.4.25-4.88,2.69-7a6,6,0,0,1,8,.07c2.74,2.54,2.46,6.63,2.42,7.08l-.08.9L3.52,19,3.8,17.1l10.05.11a6.41,6.41,0,0,0-1.79-4.41,4.44,4.44,0,0,0-5.94,0c-1.8,1.57-1.93,4.17-2,5.5A8.63,8.63,0,0,0,5.55,24c.26.34,1.86,2.43,4.24,2.18a4.82,4.82,0,0,0,3.13-1.89A6.48,6.48,0,0,0,14,22l.66,0a5.94,5.94,0,0,1-.25,2.62A5.57,5.57,0,0,1,9.56,28.21Z"/></svg>