<svg xmlns="http://www.w3.org/2000/svg" viewBox="0 0 18 35"><defs><style>.cls-1{fill:#231f20;}</style></defs><g id="Artwork_glyph" data-name="Artwork glyph"><path class="cls-1" d="M9.56,28.21a8,8,0,0,1-6.19-2.85,9.63,9.63,0,0,1-2.19-7.21c.09-1.4.3-4.88,3.16-7a7.92,7.92,0,0,1,9.39.07,8.29,8.29,0,0,1,2.85,7.08l-.1.9L2.47,19l.34-1.93,11.79.11a6,6,0,0,0-2.11-4.41,5.88,5.88,0,0,0-7,0c-2.12,1.57-2.28,4.17-2.35,5.5A7.62,7.62,0,0,0,4.85,24a6.24,6.24,0,0,0,5,2.18,5.82,5.82,0,0,0,3.68-1.89A5.88,5.88,0,0,0,14.8,22l.77,0a5.13,5.13,0,0,1-.28,2.62C14.34,27,11.59,28.09,9.56,28.21Z"/></g></svg>