<svg xmlns="http://www.w3.org/2000/svg" viewBox="0 0 18 35"><defs><style>.cls-1{font-size:35px;fill:#bcbcbc;font-family:ArialMT, Arial;}.cls-2{fill:#231f20;}</style></defs><g id="Example_glyph" data-name="Example glyph"><g id="Line_2-2" data-name="Line 2"><text class="cls-1" transform="translate(-0.73 27.99)">e</text></g></g><g id="Artwork_glyph" data-name="Artwork glyph"><path class="cls-2" d="M1.58,19A14.67,14.67,0,0,0,12.86,17.4c1.86-1.13,4-2.84,3.88-5.26a5.55,5.55,0,0,0-4.48-4.82A8.29,8.29,0,0,0,6.13,8.5,13.42,13.42,0,0,0,1.56,13a8.3,8.3,0,0,0-.49,6.69,17,17,0,0,0,2.77,5.7c3,3.7,8.07,3.3,12.27,2.65a2.52,2.52,0,0,0,1.75-3.08,2.59,2.59,0,0,0-3.08-1.75l-.94.15c.42-.06-.39,0-.55.05a15.93,15.93,0,0,1-2.07.09c-.32,0-.63,0-1-.05s.35.09,0,0l-.45-.09c-.26-.06-.52-.14-.77-.22-.46-.15-.14-.05,0,0a5.83,5.83,0,0,1-.6-.32c-.13-.08-.26-.16-.38-.25.11.08.28.26,0-.06l-.34-.36c0-.05-.27-.37-.07-.08a10,10,0,0,1-1-1.76c.14.34,0-.05,0-.1l-.18-.47c-.14-.36-.28-.72-.4-1.09a6.52,6.52,0,0,1-.41-2,1.57,1.57,0,0,1,.11-.69c.1-.39-.15.27,0-.09a4.56,4.56,0,0,1,.24-.44L6.21,15c.17-.23,0,0,0,0a9.67,9.67,0,0,1,.88-.93c.25-.24.51-.46.78-.69,0,0,.36-.28.12-.1l.44-.3a8,8,0,0,1,.8-.47s.53-.23.3-.15a3.51,3.51,0,0,0,.45-.13,3.39,3.39,0,0,1,.48-.1c-.48.07-.09,0,0,0a3.38,3.38,0,0,0,.45,0c-.39,0-.15,0,0,0l.44.12c.13,0,.37.21,0,0l.38.23c-.35-.24.08.15,0,0l0-.07c.13.24.16.28.1.14s0-.28,0-.36c.07-.36.25-.43-.12-.09-.21.2-.42.38-.64.56.3-.24,0,0-.08,0s-.4.28-.61.4a8.3,8.3,0,0,1-1.58.8,13,13,0,0,1-2.12.55h0l-.73.06a9.91,9.91,0,0,1-1.09,0l-.36,0s-.8-.1-.3,0c-.4-.07-.8-.16-1.19-.26A2.53,2.53,0,0,0-.16,16,2.54,2.54,0,0,0,1.58,19Z"/></g></svg>