<svg xmlns="http://www.w3.org/2000/svg" viewBox="0 0 18 35"><defs><style>.cls-1{font-size:35px;fill:#bcbcbc;font-family:ArialMT, Arial;}.cls-2{fill:#231f20;}</style></defs><g id="Example_glyph" data-name="Example glyph"><g id="Line_2-2" data-name="Line 2"><text class="cls-1" transform="translate(4.14 27.99)">f</text></g></g><g id="Artwork_glyph" data-name="Artwork glyph"><path class="cls-2" d="M13.27,1.2C9.06,3.31,7,7.83,6.42,12.33,5.8,17.6,7.72,22.79,8.84,27.86c.69,3.14,5.51,1.82,4.82-1.32-1-4.34-2.59-8.7-2.33-13.2.18-3.15,1.55-6.36,4.47-7.82a2.53,2.53,0,0,0,.9-3.42,2.56,2.56,0,0,0-3.43-.9Z"/><path class="cls-2" d="M2.91,14.88a25.7,25.7,0,0,1,5-.15c.39,0,.77.06,1.15.1l.38,0-.19,0,.66.1q1.23.21,2.43.54a2.5,2.5,0,0,0,1.33-4.82A27.91,27.91,0,0,0,2.91,9.88a2.71,2.71,0,0,0-1.77.73,2.49,2.49,0,0,0-.73,1.77c.05,1.21,1.11,2.67,2.5,2.5Z"/></g></svg>