<svg xmlns="http://www.w3.org/2000/svg" viewBox="0 0 18 35"><defs><style>.a{fill:#231f20;}</style></defs><path class="a" d="M8.22,28.08c-3.9,0-7.07-4.2-7.07-9.36S4.32,9.36,8.22,9.36s7.08,4.2,7.08,9.36S12.12,28.08,8.22,28.08Zm0-16.72c-2.8,0-5.07,3.3-5.07,7.36s2.27,7.36,5.07,7.36,5.08-3.3,5.08-7.36S11,11.36,8.22,11.36Z"/><path class="a" d="M9,35.15A6.32,6.32,0,0,1,5,34a6.18,6.18,0,0,1-1.8-2.16,6.3,6.3,0,0,1-.65-2.12h.8a5.86,5.86,0,0,0,1.35,2.07,6.38,6.38,0,0,0,1.23.9c2.15,1.14,5.15,0,5.42-.13A9.18,9.18,0,0,0,13,30.85a9.82,9.82,0,0,0,1.25-2.27V28q0-4.31.05-8.69,0-4.77-.06-9.45h2q0,4.68,0,9.45c0,2.93,0,5.84,0,8.72v.6a9,9,0,0,1-1,2.7,9.14,9.14,0,0,1-1.94,2.38A7.68,7.68,0,0,1,9,35.15Z"/></svg>