<svg xmlns="http://www.w3.org/2000/svg" viewBox="0 0 18 35"><defs><style>.a{fill:#231f20;}</style></defs><path class="a" d="M8.71,28.08c-3.42,0-6.21-4.2-6.21-9.36S5.29,9.36,8.71,9.36s6.21,4.2,6.21,9.36S12.14,28.08,8.71,28.08Zm0-16.72c-2.45,0-4.45,3.3-4.45,7.36s2,7.36,4.45,7.36,4.46-3.3,4.46-7.36S11.17,11.36,8.71,11.36Z"/><path class="a" d="M8.59,35.15A4.91,4.91,0,0,1,5.14,34a6.05,6.05,0,0,1-1.55-2.16A7.34,7.34,0,0,1,3,29.75h.69a5.9,5.9,0,0,0,1.17,2.07,5.56,5.56,0,0,0,1.06.9c1.85,1.14,4.44,0,4.67-.13a8.48,8.48,0,0,0,1.45-1.75,9.81,9.81,0,0,0,1.08-2.27V28c0-2.87,0-5.77,0-8.69q0-4.77,0-9.45h1.74c0,3.12,0,6.27,0,9.45q0,4.39,0,8.72v.6a9.88,9.88,0,0,1-.85,2.7,9.07,9.07,0,0,1-1.67,2.38A6.1,6.1,0,0,1,8.59,35.15Z"/></svg>