<svg xmlns="http://www.w3.org/2000/svg" viewBox="0 0 18 35"><defs><style>.cls-1{font-size:35px;fill:#bcbcbc;font-family:ArialMT, Arial;}.cls-2{fill:#231f20;}</style></defs><g id="Example_glyph" data-name="Example glyph"><g id="Line_2-2" data-name="Line 2"><text class="cls-1" transform="translate(-0.73 27.99)">g</text></g></g><g id="Artwork_glyph" data-name="Artwork glyph"><path class="cls-2" d="M12.37,12.09a7.86,7.86,0,0,0-9.27,3.7c-.45.87-.55,1.9-1,2.76-.36.7-1,1.22-1.31,2.08A5.05,5.05,0,0,0,1.2,24a18.69,18.69,0,0,0,1.39,3,5.1,5.1,0,0,0,5.6,2.57c2.05-.5,3.58-2.06,5.1-3.42s3.14-2.67,3.58-4.77a10.07,10.07,0,0,0,.08-2.9,6.15,6.15,0,0,1,0-1.85l-4.66-1.26a52.45,52.45,0,0,1,0,7A43,43,0,0,1,11.54,29a5.86,5.86,0,0,1-3.37,3.64A3,3,0,0,1,6.33,33a3.37,3.37,0,0,1-.46-.18c-.13-.1-.36-.52-.32-.21a2.58,2.58,0,0,0-2.5-2.5,2.51,2.51,0,0,0-2.5,2.5,6.1,6.1,0,0,0,6,5.43c3,.07,6.07-1.84,8-4.08,2.16-2.57,2.22-5.8,2.51-9a58.7,58.7,0,0,0,.25-9.65,2.58,2.58,0,0,0-1.84-2.41,2.5,2.5,0,0,0-2.82,1.15A8.58,8.58,0,0,0,12,18.43c.08,1,.29,1.8-.4,2.5-1,1-2.14,2-3.25,2.94a5.9,5.9,0,0,1-1.14.75c-.59.29-.2-.05-.08.07a6.51,6.51,0,0,1-1-1.9l-.27-.7c-.06-.16-.12-.33-.17-.5a3.78,3.78,0,0,1-.17.74,8.66,8.66,0,0,0,1.08-1.54,22,22,0,0,0,.78-2.19A2.78,2.78,0,0,1,11,16.91a2.5,2.5,0,1,0,1.33-4.82Z"/></g></svg>