<svg xmlns="http://www.w3.org/2000/svg" viewBox="0 0 18 35"><defs><style>.cls-1{font-size:35px;fill:#bcbcbc;font-family:ArialMT, Arial;}.cls-2{fill:#231f20;}</style></defs><g id="Example_glyph" data-name="Example glyph"><g id="Line_2-2" data-name="Line 2"><text class="cls-1" transform="translate(-0.73 27.99)">h</text></g></g><g id="Artwork_glyph" data-name="Artwork glyph"><path class="cls-2" d="M-.47,4.74q-.18,7.53-.35,15.05c-.09,3.82-.8,10.6,3.5,12.55,1.65.75,3.8-.1,3.76-2.16A56.54,56.54,0,0,0,6,23.56c-.15-1.07-.31-2.14-.51-3.2A10.56,10.56,0,0,1,5,17.69L4.61,19C5.06,18,6.82,17.08,7.7,16.5a32.48,32.48,0,0,1,4.09-2.24l-3.42-.89c3,4.55,3.85,10,4.69,15.27a2.51,2.51,0,0,0,3.07,1.74,2.56,2.56,0,0,0,1.75-3.07c-.9-5.71-2-11.55-5.19-16.47A2.58,2.58,0,0,0,9.27,10a30.82,30.82,0,0,0-5.14,3C2.55,14,.4,15.32,0,17.36a7,7,0,0,0,.32,2.9c.25,1.1.46,2.22.62,3.34a48.34,48.34,0,0,1,.5,6.58L5.21,28c-1.14-.52-1-2.89-1-3.94-.09-2.08,0-4.17.06-6.24L4.53,4.74c.07-3.22-4.93-3.22-5,0Z"/></g></svg>