<svg xmlns="http://www.w3.org/2000/svg" viewBox="0 0 18 35"><defs><style>.cls-1{font-size:35px;fill:#bcbcbc;font-family:ArialMT, Arial;}.cls-2{fill:#231f20;}</style></defs><g id="Example_glyph" data-name="Example glyph"><g id="Line_2-2" data-name="Line 2"><text class="cls-1" transform="translate(5.11 27.99)">j</text></g></g><g id="Artwork_glyph" data-name="Artwork glyph"><path class="cls-2" d="M8.73,6.73c3.21,0,3.22-5,0-5s-3.23,5,0,5Z"/><path class="cls-2" d="M6.77,11.09c.56,3.43,1.17,6.85,1.69,10.29.19,1.3-.18,1.73-1,2.67l-3.4,4,3.92.5a12,12,0,0,1-1-3.67,2.57,2.57,0,0,0-2.5-2.5A2.52,2.52,0,0,0,2,24.86a19.69,19.69,0,0,0,1.68,6.2,2.52,2.52,0,0,0,3.93.5c1.29-1.49,2.59-3,3.85-4.5a7.27,7.27,0,0,0,2-5.28c-.13-2-.6-4-.92-5.92l-1-6.1A2.51,2.51,0,0,0,8.52,8a2.56,2.56,0,0,0-1.75,3.08Z"/></g></svg>