<svg xmlns="http://www.w3.org/2000/svg" viewBox="0 0 18 35"><defs><style>.cls-1{font-size:35px;fill:#bcbcbc;font-family:ArialMT, Arial;}.cls-2{fill:#231f20;}</style></defs><g id="Example_glyph" data-name="Example glyph"><g id="Line_2-2" data-name="Line 2"><text class="cls-1" transform="translate(0.25 27.99)">k</text></g></g><g id="Artwork_glyph" data-name="Artwork glyph"><path class="cls-2" d="M5.39,5.49A94.38,94.38,0,0,1,7,15c.18,1.61.32,3.22.42,4.84,0,.72.07,1.43.09,2.15,0,.46.13-.07,0,.31s.28-.42.63-.51c-3.1.83-1.79,5.66,1.33,4.82,4.24-1.14,3-6.94,2.72-10.13A101.71,101.71,0,0,0,10.21,4.16,2.5,2.5,0,1,0,5.39,5.49Z"/><path class="cls-2" d="M14.71,6.6a32.73,32.73,0,0,1-2.1,4.08c-.39.66-.81,1.29-1.26,1.92s-.88,1-1.36,1.79c-1.12,1.76,0,3.79.56,5.54l1.6,4.81A2.5,2.5,0,0,0,17,23.41L15.47,18.9l-.7-2.1c-.07-.21-.14-.74-.31-.9-.58,1.34-.65,1.71-.22,1.1l.36-.45A33.38,33.38,0,0,0,19,9.12a2.58,2.58,0,0,0-.89-3.42,2.52,2.52,0,0,0-3.42.9Z"/></g></svg>