<svg xmlns="http://www.w3.org/2000/svg" viewBox="0 0 18 35"><defs><style>.cls-1{font-size:35px;fill:#bcbcbc;font-family:ArialMT, Arial;}.cls-2{fill:#231f20;}</style></defs><g id="Example_glyph" data-name="Example glyph"><g id="Line_2-2" data-name="Line 2"><text class="cls-1" transform="translate(5.11 27.99)">l</text></g></g><g id="Artwork_glyph" data-name="Artwork glyph"><path class="cls-2" d="M7.87,26.31l-.07-.14,0-.28q0-5,0-10c0-3.59,0-7.16,0-10.71a1.09,1.09,0,0,0-.3-.61C7.1,4.16,6.45,4.3,5.94,4.4A3.81,3.81,0,0,0,4.52,5H3.77A6.44,6.44,0,0,1,5.48,3.5c.22-.13,2-1.17,3.3-.69a1.49,1.49,0,0,1,.81.63A1.34,1.34,0,0,1,9.75,4c0,.64,0,9.31,0,21.16a1.33,1.33,0,0,0,.7,1.34,1.47,1.47,0,0,0,.69.17,3.75,3.75,0,0,0,3-1h.51a2.79,2.79,0,0,1-.45,1.13,3.42,3.42,0,0,1-2.47,1.36l-.2,0C11.14,28.25,8.62,27.9,7.87,26.31Z"/></g></svg>