<svg xmlns="http://www.w3.org/2000/svg" viewBox="0 0 18 35"><defs><style>.a{fill:#231f20;}</style></defs><path class="a" d="M2.73,28H1.4c0-8.47.05-14.37.14-15.49,0-.22.11-1.11-.35-1.45A.47.47,0,0,0,.81,11c-.18.05-.3.28-.31.58,0-.1-.44-.88-.12-1.27s1.5-.19,2,.42a2,2,0,0,1,.4,1.26C2.79,13.48,2.78,19.61,2.73,28Z"/><path class="a" d="M8.82,28c0-7.08.06-12.27.12-13.89a2.72,2.72,0,0,0-.35-1.55,2.89,2.89,0,0,0-2.06-1.26C5,11.12,3.21,12.67,2.37,15.22c-.06-1.2-.11-2.41-.16-3.62a4.42,4.42,0,0,1,4.68-2,4.82,4.82,0,0,1,2.93,2.81,4.89,4.89,0,0,1,.35,1.91c-.13,2.06-.11,7.8-.07,13.7Z"/><path class="a" d="M15.84,28q-.08-4.74-.05-9.64c0-1.45,0-2.89.05-4.33a3.87,3.87,0,0,0-.1-.62,3.68,3.68,0,0,0-.4-1,2.67,2.67,0,0,0-1.8-1.08c-1.3-.15-3,1.57-3.75,4.39-.14-.64-.32-1.46-.51-2.44-.12-.6-.2-1,0-1.29a4.12,4.12,0,0,1,4.16-2.48c2.22.17,3.28,2.73,3.36,2.91a5,5,0,0,1,.35,1.91c-.13,2.06-.11,7.8-.07,13.7Z"/></svg>