<svg xmlns="http://www.w3.org/2000/svg" viewBox="0 0 18 35"><defs><style>.a{fill:#231f20;}</style></defs><path class="a" d="M5,28H3.32c0-8.47,0-14.37.11-15.49,0-.22.08-1.11-.28-1.45,0,0-.16-.15-.29-.1s-.24.28-.25.58c0-.1-.34-.88-.09-1.27s1.14,0,1.59.42A2.24,2.24,0,0,1,4.68,12C4.82,13.39,5,19.57,5,28Z"/><path class="a" d="M8.74,28l.2-14.1a2.27,2.27,0,0,0-.28-1.78,2,2,0,0,0-1.31-.82c-1.13-.12-2.53,1.44-3.27,3.93C4,14,4,12.81,4,11.6c.88-1.66,2.36-2.47,3.68-2,1.55.52,2.21,2.53,2.3,2.81a5.56,5.56,0,0,1,.27,1.91c-.1,2.06-.08,7.8,0,13.7Z"/><path class="a" d="M14.34,28q.08-6.27.14-12.54l0-1.45a6.28,6.28,0,0,0-.07-.68A4,4,0,0,0,14,12.19c-.5-.77-.95-.89-1.16-.9-1-.08-2.3,1.63-2.95,4.39-.11-.64-.25-1.46-.4-2.44-.1-.6-.16-1,0-1.29s.78-2.64,3.27-2.48c1.74.17,2.58,2.73,2.64,2.91a6,6,0,0,1,.27,1.91c-.1,2.06-.08,7.8-.05,13.7Z"/></svg>