<svg xmlns="http://www.w3.org/2000/svg" viewBox="0 0 18 35"><defs><style>.cls-1{font-size:35px;fill:#bcbcbc;font-family:ArialMT, Arial;}.cls-2{fill:#231f20;}</style></defs><g id="Example_glyph" data-name="Example glyph"><g id="Line_2-2" data-name="Line 2"><text class="cls-1" transform="translate(-5.58 27.99)">m</text></g></g><g id="Artwork_glyph" data-name="Artwork glyph"><path class="cls-2" d="M2.4,28h-1q.08-7.43.14-14.86c0-.13.11-1.08-.44-1.45a.54.54,0,0,0-.48-.12.55.55,0,0,0-.31.55A1.24,1.24,0,0,1,.38,11c.44-.52,1.63-.21,2,.41a1.47,1.47,0,0,1,.08,1.11C2.33,13.54,2.32,19.33,2.4,28Z"/><path class="cls-2" d="M9.1,28c0-5.68-.06-11.21.07-13.21a2.51,2.51,0,0,0-.24-1.32A3.14,3.14,0,0,0,6.53,12c-1.59-.15-3.39,1.35-4.16,3.77-.06-1.16-.11-2.31-.16-3.47a4.49,4.49,0,0,1,4.68-1.95A4.74,4.74,0,0,1,9.82,13a4.56,4.56,0,0,1,.35,1.84c-.13,2-.11,7.48-.07,13.14Z"/><path class="cls-2" d="M16.11,28c0-5.68-.06-11.21.07-13.21a2.51,2.51,0,0,0-.24-1.32,3,3,0,0,0-2.4-1.5c-1.53-.07-3.26,1.6-3.75,4.21-.14-.61-.32-1.4-.51-2.34-.12-.58-.2-1,0-1.24a4.08,4.08,0,0,1,4.16-2.37c2.22.16,3.28,2.61,3.36,2.78a4.63,4.63,0,0,1,.35,1.84c-.13,2-.11,7.48-.07,13.14Z"/></g></svg>