<svg xmlns="http://www.w3.org/2000/svg" viewBox="0 0 18 35"><defs><style>.a{fill:#231f20;}</style></defs><path class="a" d="M15.14,12.37a6.36,6.36,0,0,0-4.4-2.81,8.53,8.53,0,0,0-6.42,1.5l-.27-.39c-.49-.48-1.39-.88-1.7-.42a1.58,1.58,0,0,0-.06,1.18.63.63,0,0,1,.26-.58c.17-.08.35.07.41.13.46.39.37,1.51.37,1.51L3.21,28H4.52c0-.78,0-9.22,0-13.78a6.71,6.71,0,0,1,5.67-2.93,5.29,5.29,0,0,1,3.61,1.57,1.91,1.91,0,0,1,.36,1.37C14,16.31,14,22.08,14.07,28h1.51c-.07-5.9-.1-11.65.09-13.7A3.32,3.32,0,0,0,15.14,12.37Z"/></svg>