<svg xmlns="http://www.w3.org/2000/svg" viewBox="0 0 18 35"><defs><style>.cls-1{font-size:35px;fill:#bcbcbc;font-family:ArialMT, Arial;}.cls-2{fill:#231f20;}</style></defs><g id="Example_glyph" data-name="Example glyph"><g id="Line_2-2" data-name="Line 2"><text class="cls-1" transform="translate(-0.73 27.99)">n</text></g></g><g id="Artwork_glyph" data-name="Artwork glyph"><path class="cls-2" d="M.25,12.12a22.43,22.43,0,0,1,.88,2.78c.12.49.23,1,.32,1.48,0,.23.07.47.11.7-.07-.45,0,.12,0,.26a23.75,23.75,0,0,1,.13,2.8c0,.46,0,.93-.05,1.4,0,.27,0,.54-.08.81,0,.12,0,.23,0,.35q.06-.42,0,0A2.54,2.54,0,0,0,3,25.68a2.49,2.49,0,0,0,3.13-1c.81-1.76,1.62-3.52,2.5-5.24.46-.87.93-1.74,1.43-2.59q.36-.6.75-1.2c.12-.2.26-.39.38-.6l.14-.19c-.46.69-1.22.82-2.28.38-.5-.31-.14-.07,0,.09l.42.48c.14.17.27.34.41.5-.35-.42.09.13.13.18a20.32,20.32,0,0,1,1.37,2.17c.2.38.39.76.57,1.15.08.16.26.59.09.18l.24.6a20.43,20.43,0,0,1,.78,2.67A2.53,2.53,0,0,0,16.14,25a2.57,2.57,0,0,0,1.75-3.08,22.86,22.86,0,0,0-2.4-6.17,24.72,24.72,0,0,0-2.07-3,5.35,5.35,0,0,0-2.76-2.21c-1.89-.45-3.12.93-4,2.35-.65,1-1.24,2-1.81,3.06-1.08,2-2,4.09-3,6.17l4.57,1.93a26.29,26.29,0,0,0-1.3-13.27A2.55,2.55,0,0,0,2,9,2.53,2.53,0,0,0,.25,12.12Z"/></g></svg>