<svg xmlns="http://www.w3.org/2000/svg" viewBox="0 0 18 35"><defs><style>.a{fill:#231f20;}</style></defs><path class="a" d="M3.77,28H2.22l.14-15.5s.11-1.12-.44-1.51a.51.51,0,0,0-.48-.13.6.6,0,0,0-.31.58,1.34,1.34,0,0,1,.07-1.18c.37-.46,1.44-.06,2,.42l.55.67S3.83,26.91,3.77,28Z"/><path class="a" d="M15.1,28c-.08-5.92-.12-11.69.11-13.78a1.63,1.63,0,0,0-.43-1.37c-.88-1-2.93-1.5-4.27-1.57a8.27,8.27,0,0,0-7.42,3.94C3,14,2.9,12.8,2.81,11.6a11.13,11.13,0,0,1,8.34-2,7.67,7.67,0,0,1,5.22,2.81A2.92,2.92,0,0,1,17,14.29c-.23,2.05-.19,7.8-.11,13.7Z"/></svg>