<svg xmlns="http://www.w3.org/2000/svg" viewBox="0 0 18 35"><defs><style>.cls-1{font-size:35px;fill:#bcbcbc;font-family:ArialMT, Arial;}.cls-2{fill:#231f20;}</style></defs><g id="Example_glyph" data-name="Example glyph"><g id="Line_2-2" data-name="Line 2"><text class="cls-1" transform="translate(-0.73 27.99)">o</text></g></g><g id="Artwork_glyph" data-name="Artwork glyph"><path class="cls-2" d="M12.14,12A3.15,3.15,0,0,0,8.76,10.6,4.73,4.73,0,0,0,6.4,12a10.3,10.3,0,0,0-2.47,4,9.8,9.8,0,0,0,1.65,9C6.65,26.44,8.27,28,10.14,28s3.37-1.61,4.56-2.83a8.9,8.9,0,0,0,2.52-4.4,6.74,6.74,0,0,0,0-2.93c-.06-.26-.35-.76-.29-1,0,0,.06.49,0,.5a5,5,0,0,0,.23-.74,4.88,4.88,0,0,0-2.41-5.39,6.56,6.56,0,0,0-6.2.27,2.52,2.52,0,0,0-.9,3.42,2.56,2.56,0,0,0,3.42.9l.37-.18c-.05,0-.39.12-.13.07.08,0,.6-.25.68-.18s-.46,0-.06,0h.29c.34,0-.38-.13-.07,0l.19,0c.19.06.13,0-.19-.09a1.26,1.26,0,0,0,.23.13c.28.13-.3-.32-.1-.08a1.09,1.09,0,0,0,.18.19c-.11,0-.25-.51-.1-.09.09.23,0,.1,0,0l-.06-.15c.05.22.05.22,0,0s0-.07,0,0c0-.36.07-.37,0,0A4.8,4.8,0,0,0,12,17.58a5.93,5.93,0,0,0,.2.93c0,.12.3.7.22.81,0-.05,0-.45,0-.07a1.53,1.53,0,0,0,0,.3c0,.35.11-.4,0-.06,0,.09,0,.2-.07.29s-.08.26-.12.39-.22.34,0,0c-.14.23-.26.48-.4.71l-.06.09c.18-.24-.09.11-.14.17s-.33.37-.51.55c-.37.38-.78.74-1.18,1.09a3.51,3.51,0,0,1-.56.46c.12-.06.4-.18.05-.07a1.59,1.59,0,0,1,1.07-.1c.88.25-.17-.07-.19-.23,0,0,.46.39.06,0l-.28-.25c-.18-.17-.35-.36-.52-.54-.31-.35.19.3-.07-.09a5.62,5.62,0,0,1-.73-1.31c.15.47,0,0-.05-.2s-.12-.42-.16-.63c0-.06-.06-.37-.07-.37s0,.48,0,.19,0-.51,0-.76,0-.26,0-.39,0-.13,0-.19,0-.13,0,.18a6.53,6.53,0,0,1,.17-.75A3.07,3.07,0,0,1,8.89,17s-.2.41-.06.16.14-.29.22-.43a7.23,7.23,0,0,1,.4-.66c.29-.44,0,0,0,0s.2-.23.25-.29l.27-.28c.06-.06.46-.45.16-.18s-.07,0,0,0c-.34.12-.42.16-.24.1.81-.21.13-.52-2-.92A2.5,2.5,0,1,0,12.14,12Z"/></g></svg>