<svg xmlns="http://www.w3.org/2000/svg" viewBox="0 0 18 35"><defs><style>.cls-1{fill:#231f20;}</style></defs><g id="Artwork_glyph" data-name="Artwork glyph"><path class="cls-1" d="M9.35,28.47a6.62,6.62,0,0,1-4.71-2A7.78,7.78,0,0,1,3,23.24c-.58-1.67-.52-2.31-1-8-.21-2.46-.35-3.89.58-4.81.3-.29.92-.74,1.32-.56s.21,1.27.65,1.47,1-.87,2.32-1.47a5.08,5.08,0,0,1,2.51-.37,7.18,7.18,0,0,1,4.24,1.87A9.75,9.75,0,0,1,16.84,19C16.69,23.47,13.27,28.35,9.35,28.47Zm0-17.57c-3.09,0-5.71,3.69-5.71,8.07S6.26,27,9.35,27s5.72-3.69,5.72-8.07S12.45,10.9,9.35,10.9Z"/><rect class="cls-1" x="1.87" y="9.84" width="2" height="25.11"/></g></svg>