<svg xmlns="http://www.w3.org/2000/svg" viewBox="0 0 18 35"><defs><style>.a{fill:#231f20;}</style></defs><path class="a" d="M9.34,28.47a5.42,5.42,0,0,1-4.1-2,8.12,8.12,0,0,1-1.46-3.23c-.5-1.67-.46-2.31-.87-8-.18-2.46-.31-3.89.5-4.81.26-.29.81-.74,1.15-.56s.19,1.27.57,1.47.9-.87,2-1.47a3.93,3.93,0,0,1,2.19-.37A5.92,5.92,0,0,1,13,11.34,10.48,10.48,0,0,1,15.87,19C15.74,23.47,12.75,28.35,9.34,28.47Zm0-17.57c-2.7,0-5,3.69-5,8.07S6.64,27,9.34,27s5-3.69,5-8.07S12,10.9,9.34,10.9Z"/><rect class="a" x="2.82" y="9.84" width="1.74" height="25.11"/></svg>