<svg xmlns="http://www.w3.org/2000/svg" viewBox="0 0 18 35"><defs><style>.a{fill:#231f20;}</style></defs><path class="a" d="M9.26,28.47a5.52,5.52,0,0,1-4.16-2,8.14,8.14,0,0,1-1.48-3.23c-.51-1.67-.46-2.31-.88-8-.19-2.46-.31-3.89.51-4.81.26-.29.82-.74,1.17-.56s.18,1.27.57,1.47S5.91,10.44,7,9.84a4,4,0,0,1,2.22-.37A6.08,6.08,0,0,1,13,11.34,10.42,10.42,0,0,1,15.87,19C15.73,23.47,12.71,28.35,9.26,28.47Zm0-17.57c-2.74,0-5,3.69-5,8.07S6.52,27,9.26,27s5-3.69,5-8.07S12,10.9,9.26,10.9Z"/><rect class="a" x="2.65" y="9.84" width="1.77" height="25.11"/></svg>