<svg xmlns="http://www.w3.org/2000/svg" viewBox="0 0 18 35"><defs><style>.cls-1{font-size:35px;fill:#bcbcbc;font-family:ArialMT, Arial;}.cls-2{fill:#231f20;}</style></defs><g id="Example_glyph" data-name="Example glyph"><g id="Line_2-2" data-name="Line 2"><text class="cls-1" transform="translate(-0.73 27.99)">p</text></g></g><g id="Artwork_glyph" data-name="Artwork glyph"><path class="cls-2" d="M3.8,16.33,2.74,26.15C2.43,29,1.58,32.57,4,34.86a2.5,2.5,0,1,0,3.53-3.54c-.2-.21-.22-.21-.05,0l-.06-.11c0,.38-.06-.84,0-.18a11.87,11.87,0,0,1,0-1.46c.13-1.47.31-2.94.47-4.4l1-8.82a2.51,2.51,0,0,0-2.5-2.5,2.57,2.57,0,0,0-2.5,2.5Z"/><path class="cls-2" d="M8.57,14.5l.8.53.35.25c.16.12.56.28,0,0A4.84,4.84,0,0,1,11,16.49c.39.42-.26-.44,0,0l.22.35a4,4,0,0,1,.18.36c-.13-.32-.16-.4-.1-.22a2.09,2.09,0,0,1,.08.23c0,.13.06.27.1.4.09.29,0-.57,0-.11a3.84,3.84,0,0,1,0,.48c0,.45.11-.41,0-.12a1.47,1.47,0,0,0-.11.38c0-.18.24-.48,0-.1s0,0,.1-.1c-.1.08-.2.22-.29.31s-.41.31-.07.08,0,0-.09.05-.45.29-.67.42a10.09,10.09,0,0,0-2.88,2.12,2.71,2.71,0,0,0-.73,1.77,2.5,2.5,0,0,0,4.27,1.76l.28-.32c.06-.06.54-.43.17-.17s.08-.05.16-.1.24-.16.37-.23c.51-.31,1-.59,1.55-.93a6.06,6.06,0,0,0,2.88-4.59,7.11,7.11,0,0,0-1.72-5,15.62,15.62,0,0,0-3.68-3,2.51,2.51,0,0,0-3.42.9,2.56,2.56,0,0,0,.89,3.42Z"/></g></svg>