<svg xmlns="http://www.w3.org/2000/svg" viewBox="0 0 18 35"><defs><style>.a{fill:#231f20;}</style></defs><path class="a" d="M2.14,19.17a10.23,10.23,0,0,1,2.93-7.63A6.15,6.15,0,0,1,8.89,9.67a4,4,0,0,1,2.28.37c1.15.6,1.67,1.67,2.09,1.46s.14-1.22.59-1.46.92.27,1.19.56c.84.91.71,2.34.53,4.81-.44,5.72-.39,6.36-.91,8a8,8,0,0,1-1.51,3.23,5.71,5.71,0,0,1-4.26,2C5.36,28.55,2.27,23.67,2.14,19.17Zm1.59,0c0,4.37,2.37,8.07,5.16,8.07s5.17-3.7,5.17-8.07-2.37-8.08-5.17-8.08S3.73,14.79,3.73,19.17Z"/><line class="a" x1="14.75" y1="35.16" x2="14.75" y2="10.04"/><rect class="a" x="13.85" y="10.04" width="1.81" height="25.11"/></svg>