<svg xmlns="http://www.w3.org/2000/svg" viewBox="0 0 18 35"><defs><style>.cls-1{fill:#231f20;}</style></defs><g id="Artwork_glyph" data-name="Artwork glyph"><path class="cls-1" d="M1.49,19.17a9.75,9.75,0,0,1,3.25-7.63A7.06,7.06,0,0,1,9,9.67a4.86,4.86,0,0,1,2.51.37c1.28.6,1.86,1.67,2.32,1.46s.16-1.22.65-1.46,1,.27,1.32.56c.93.91.79,2.34.58,4.81-.48,5.72-.42,6.36-1,8a7.78,7.78,0,0,1-1.67,3.23,6.62,6.62,0,0,1-4.71,2C5.06,28.55,1.64,23.67,1.49,19.17Zm1.77,0c0,4.37,2.62,8.07,5.72,8.07s5.71-3.7,5.71-8.07S12.07,11.09,9,11.09,3.26,14.79,3.26,19.17Z"/><line class="cls-1" x1="15.46" y1="35.16" x2="15.46" y2="10.04"/><rect class="cls-1" x="14.46" y="10.04" width="2" height="25.11"/></g></svg>