<svg xmlns="http://www.w3.org/2000/svg" viewBox="0 0 18 35"><defs><style>.cls-1{font-size:35px;fill:#bcbcbc;font-family:ArialMT, Arial;}.cls-2{fill:#231f20;}</style></defs><g id="Example_glyph" data-name="Example glyph"><g id="Line_2-2" data-name="Line 2"><text class="cls-1" transform="translate(-0.73 27.99)">q</text></g></g><g id="Artwork_glyph" data-name="Artwork glyph"><path class="cls-2" d="M7.68,12C6.05,13.4,4.6,15.09,4.47,17.3c-.14,2.38,1.47,4.16,3.27,5.47a4.31,4.31,0,0,0,3.61,1.09c1.25-.32,1.92-1.35,2.7-2.29a8.63,8.63,0,0,0,1.84-2.95A4.19,4.19,0,0,0,16,16.54a4.48,4.48,0,0,0-.39-1l-.1-.18c-.23-.39-.21-.21.07.55l-.34,1.26-.21.23-1.1.65L14,18H12.69l.15,0-1.75-1.75A36.51,36.51,0,0,1,11.9,29a2.51,2.51,0,0,0,2.5,2.5A2.57,2.57,0,0,0,16.9,29a41,41,0,0,0-1-14.09,2.43,2.43,0,0,0-1.74-1.74,2.9,2.9,0,0,0-3.25,1.37,3,3,0,0,0-.3,2.17,3.63,3.63,0,0,0,.32.79c.06.13.14.47.18.25a2.32,2.32,0,0,0,0-.46c-.06-.24-.1.17,0,0s-.23.34-.22.32c-.09.14-.21.27,0,.06-.25.31-.51.62-.77.92l-.47.58-.16.18c-.22.24-.05.14.5-.31h1.33l.11.09A3.37,3.37,0,0,1,11,19l-.38-.25-.47-.33c.21.16.11.09,0,0s-.27-.25-.4-.39-.31-.46-.1-.08c-.07-.13-.15-.25-.22-.37.23.42,0-.16,0,.12s0-.14,0-.22,0-.15,0,0,0,.16.06-.1c-.1.05-.16.28,0,0,0,0,.35-.54.19-.32s.15-.16.18-.2.27-.28.42-.42.58-.53.88-.79a2.5,2.5,0,0,0,0-3.53,2.56,2.56,0,0,0-3.53,0Z"/></g></svg>