<svg xmlns="http://www.w3.org/2000/svg" viewBox="0 0 18 35"><defs><style>.cls-1{font-size:35px;fill:#bcbcbc;font-family:ArialMT, Arial;}.cls-2{fill:#231f20;}</style></defs><g id="Example_glyph" data-name="Example glyph"><g id="Line_2-2" data-name="Line 2"><text class="cls-1" transform="translate(3.17 27.99)">r</text></g></g><g id="Artwork_glyph" data-name="Artwork glyph"><path class="cls-2" d="M2.6,10.34c.23.21.27.26.12.14s0-.13.07.17c.06.46.1.43.12.76,0,.77,0,1.53,0,2.3L2.71,19c0,1.81-.23,3.67-.15,5.48.1,2.19,2,4.15,4.27,3.18,1.88-.79,2.25-3.2,2.82-4.94l1.73-5.26L14.9,6.74,11.22,8.23l2.23,1.71A2.52,2.52,0,0,0,16.87,9,2.57,2.57,0,0,0,16,5.62L13.75,3.91c-1.36-1-3.23.14-3.68,1.5L7,14.84,5.43,19.56l-.72,2.18-.36,1.08-.23.73c-.32.76,0,.57.87-.56H6.31l.27.1.9.9c.19.27.07.71.08.07,0-.44,0-.88,0-1.32l.07-2.25.15-4.9c.09-3,.61-6.43-1.68-8.79S.35,8,2.6,10.34Z"/></g></svg>