<svg xmlns="http://www.w3.org/2000/svg" viewBox="0 0 18 35"><defs><style>.cls-1{fill:#231f20;}</style></defs><g id="Artwork_glyph" data-name="Artwork glyph"><path class="cls-1" d="M10.32,28h-2V15.38c.06-.67.47-4.16,2.81-5.4a2.38,2.38,0,0,1,1.66-.33c.93.23,1.78,2,1.89,2.53a7,7,0,0,1,0,1.45l-.71-.1a2.61,2.61,0,0,0-.29-1.13,1.73,1.73,0,0,0-1.23-.84h0a.88.88,0,0,0-.42.06,3.68,3.68,0,0,0-1.74,2.56,6.58,6.58,0,0,0-.22,1.2C9.91,17.85,10.29,27.35,10.32,28Z"/><path class="cls-1" d="M9.53,14.44c-.12,1.35-.25,2.71-.37,4.06a24.38,24.38,0,0,0-2.44-5.87,2.28,2.28,0,0,0-1.39-1,1.29,1.29,0,0,0-.45,0,2.25,2.25,0,0,0-1.29,2L3,13.66c-.14-2,.67-3.64,1.81-4s2.58.86,3,1.28A5.73,5.73,0,0,1,9.53,14.44Z"/></g></svg>