<svg xmlns="http://www.w3.org/2000/svg" viewBox="0 0 18 35"><defs><style>.cls-1{font-size:35px;fill:#bcbcbc;font-family:ArialMT, Arial;}.cls-2{fill:#231f20;}</style></defs><g id="Example_glyph" data-name="Example glyph"><g id="Line_2-2" data-name="Line 2"><text class="cls-1" transform="translate(0.25 27.99)">s</text></g></g><g id="Artwork_glyph" data-name="Artwork glyph"><path class="cls-2" d="M16.18,10.71C14,9.15,11.34,7.71,8.58,8a6.88,6.88,0,0,0-6.06,4.53,4.71,4.71,0,0,0,.89,4.55,9.56,9.56,0,0,0,1.68,1.28l.85.61c-.29-.21.33.26.32.25a27.32,27.32,0,0,1,2.67,2.49,20.7,20.7,0,0,1,2.23,2.75l2.16-3.76a6.85,6.85,0,0,0-3.81,1.1A7,7,0,0,0,8.17,23,5.72,5.72,0,0,0,7.39,24l-.12.2q2.63-.45,1.41-.69c-1.23-.47-2.58-.75-3.84-1.12L.7,21.21A2.54,2.54,0,0,0-2.38,23,2.55,2.55,0,0,0-.63,26l4.14,1.2c1.35.4,2.71.88,4.08,1.18A3.54,3.54,0,0,0,10.43,28a3.51,3.51,0,0,0,1-1.06c0-.08.56-.83.24-.44a3.48,3.48,0,0,1,.47-.47c-.37.32.33-.18.44-.23-.39.19.11,0,.25-.05.29-.06.29-.07,0,0a3.38,3.38,0,0,1,.45,0c1.79,0,3.26-2.18,2.16-3.76a31.21,31.21,0,0,0-4.21-5,33.57,33.57,0,0,0-2.6-2.17c-.41-.31-.84-.62-1.27-.91l-.32-.21q-.21-.15,0,0a1.48,1.48,0,0,1,.18.56v-.23c-.06.28-.06.28,0,0l.06-.2c-.13.28-.14.29,0,0,0-.06.37-.49.15-.25s.25-.21.29-.26l-.09.08A2.46,2.46,0,0,1,8,13.32c.19-.11.39-.21.06-.07.2-.08.41-.14.61-.2s.61-.07.17-.05c.22,0,.42,0,.64,0,.69,0-.3-.11.37,0a7,7,0,0,1,.75.21s.72.27.38.13A15.73,15.73,0,0,1,13.66,15a2.51,2.51,0,0,0,3.42-.89,2.57,2.57,0,0,0-.9-3.42Z"/></g></svg>