<svg xmlns="http://www.w3.org/2000/svg" viewBox="0 0 18 35"><defs><style>.cls-1{fill:#231f20;}</style></defs><g id="Artwork_glyph" data-name="Artwork glyph"><path class="cls-1" d="M8.65,28.38a5.66,5.66,0,0,1-3.18-1,5.23,5.23,0,0,1-2-3.12c-.09-.47-.18-1.43-.23-2.09,0-.35,0-.63-.05-.83h.47a5.56,5.56,0,0,0,.08.89,6.05,6.05,0,0,0,.74,2.07,5.63,5.63,0,0,0,1.63,1.73,5.69,5.69,0,0,0,4.74.66,3.47,3.47,0,0,0,2-1.42,3.2,3.2,0,0,0-.1-3.19c-.72-1.12-1.87-1-3.7-1.7-.58-.23-5.21-2.09-5.68-5.36a5.06,5.06,0,0,1,1.43-4C6.85,9,10.66,9,12.43,10.58a7,7,0,0,1,1.42,2,7.84,7.84,0,0,1,.7,2.3l-.93,0c-.08-.22-.18-.48-.31-.77a7.48,7.48,0,0,0-.51-.92,7.33,7.33,0,0,0-1.24-1.49,4.35,4.35,0,0,0-5.46.57,3.44,3.44,0,0,0-1,2.52c.17,1.93,2.41,3.26,3.74,3.74a15.76,15.76,0,0,1,3.3,1.13,5.73,5.73,0,0,1,1.32.89c1.33,1.3,2,3.91.87,5.63A4.68,4.68,0,0,1,11.56,28,11.32,11.32,0,0,1,8.65,28.38Z"/></g></svg>