<svg xmlns="http://www.w3.org/2000/svg" viewBox="0 0 18 35"><defs><style>.cls-1{font-size:35px;fill:#bcbcbc;font-family:ArialMT, Arial;}.cls-2{fill:#231f20;}</style></defs><g id="Example_glyph" data-name="Example glyph"><g id="Line_2-2" data-name="Line 2"><text class="cls-1" transform="translate(4.14 27.99)">t</text></g></g><g id="Artwork_glyph" data-name="Artwork glyph"><path class="cls-2" d="M5.57,12.65l5.68.7A2.51,2.51,0,0,0,13,12.62a2.57,2.57,0,0,0,.73-1.77A2.53,2.53,0,0,0,13,9.08l-.51-.39a2.53,2.53,0,0,0-1.26-.34l-5.68-.7A2.5,2.5,0,0,0,3.8,11.92l.5.39a2.54,2.54,0,0,0,1.27.34Z"/><path class="cls-2" d="M6.75,4.85A26.58,26.58,0,0,0,7.1,19.06c1,3.58,2.32,9.55,7,9.61,3.22,0,3.23-5,0-5,.25.07.23.07-.06,0a.37.37,0,0,1,.28.15,2.38,2.38,0,0,1-.35-.36c.09.12.1.11,0,0a5.86,5.86,0,0,1-.74-1.61c-.6-1.72-1.19-3.45-1.64-5.21a20.56,20.56,0,0,1,0-10.42c.81-3.12-4-4.45-4.82-1.33Z"/></g></svg>