<svg xmlns="http://www.w3.org/2000/svg" viewBox="0 0 18 35"><defs><style>.cls-1{font-size:35px;fill:#bcbcbc;font-family:ArialMT, Arial;}.cls-2{fill:#231f20;}</style></defs><g id="Example_glyph" data-name="Example glyph"><g id="Line_2-2" data-name="Line 2"><text class="cls-1" transform="translate(-0.73 27.99)">u</text></g></g><g id="Artwork_glyph" data-name="Artwork glyph"><path class="cls-2" d="M.41,12l-.47,6.69c-.17,2.46-.15,5,2.11,6.52s5,.68,6.85-.88a14.54,14.54,0,0,0,2.22-2.6,17,17,0,0,0,1.58-2.5,12.66,12.66,0,0,0,1.16-3.33,10.34,10.34,0,0,1,.32-1.36c.05-.16.22-.32,0-.1s0,.05.06-.07-.1.14-.15.16.28-.28.36-.34L10.2,12.39a64.08,64.08,0,0,0,2.11,12.44,2.52,2.52,0,0,0,3.07,1.74,2.54,2.54,0,0,0,1.75-3.07q-.78-2.84-1.29-5.72c-.08-.47-.15-.93-.22-1.39,0-.24-.07-.47-.1-.7.07.52,0-.16,0-.27-.12-1-.22-2-.29-3a2.54,2.54,0,0,0-1.54-2.29,2.57,2.57,0,0,0-2.73.52A5.77,5.77,0,0,0,9.2,13.76c-.11.46-.18.93-.29,1.39-.06.26-.13.52-.21.77s-.39.91-.13.38A18.1,18.1,0,0,1,6.8,19.18c-.06.09-.62.78-.24.32-.17.21-.35.43-.53.63s-.39.38-.59.57c.41-.38-.1.06-.23.14L4.94,21c.33-.13.37-.15.11-.06L4.71,21c.37,0,.42-.05.14,0L4.5,21c.38.06.43.06.16,0s-.22-.07.13.05c-.23-.14-.2-.11.09.1q-.27-.3.06.09c-.13-.24-.13-.2,0,.13,0-.11-.07-.23-.1-.34q-.08-.42,0,.12c-.09-.14,0-.57,0-.74s0-.49,0-.74c.17-2.55.36-5.1.54-7.65a2.51,2.51,0,0,0-2.5-2.5A2.55,2.55,0,0,0,.41,12Z"/></g></svg>