<svg xmlns="http://www.w3.org/2000/svg" viewBox="0 0 18 35"><defs><style>.a{fill:#231f20;}</style></defs><path class="a" d="M13,28.11c-1-.14-1.69-1.82-2.39-4.58-.36-1.41-1.1-4.3-1.68-4.8-.21.42-.6,1.19-1,2.18-1.8,4.1-2.21,7-3.48,7.14a1,1,0,0,1-.57-.14C2.11,27,1.79,15.17,1.72,13.76A18,18,0,0,1,2,9.82H3c0,1.23-.06,2.55,0,3.93a48.13,48.13,0,0,0,1.76,11c.14-.49.34-1.17.61-2,1.16-3.44,2-6.11,3.57-6.11H9c1.5,0,2.34,2.82,3.4,6.31.26.87.46,1.63.59,2.2a79,79,0,0,0,1.65-10c.18-1.87.3-3.66.35-5.35l.89.05c.12,2.92.1,5.37.05,7.17-.23,9-1.42,10.55-2.27,10.94A1.07,1.07,0,0,1,13,28.11Z"/></svg>