<svg xmlns="http://www.w3.org/2000/svg" viewBox="0 0 18 35"><defs><style>.cls-1{font-size:35px;fill:#bcbcbc;font-family:ArialMT, Arial;}.cls-2{fill:#231f20;}</style></defs><g id="Example_glyph" data-name="Example glyph"><g id="Line_2-2" data-name="Line 2"><text class="cls-1" transform="translate(-3.64 27.99)">w</text></g></g><g id="Artwork_glyph" data-name="Artwork glyph"><path class="cls-2" d="M13.56,28.11c-1.11-.14-1.85-1.82-2.62-4.58-.39-1.41-1.2-4.3-1.83-4.8-.24.42-.67,1.19-1.14,2.18-2,4.1-2.42,7-3.81,7.14a1.13,1.13,0,0,1-.63-.14C1.61,27,1.27,15.17,1.19,13.76a16.65,16.65,0,0,1,.26-3.94H2.61c0,1.23-.06,2.55,0,3.93a44.48,44.48,0,0,0,1.93,11c.15-.49.37-1.17.66-2,1.27-3.44,2.24-6.11,3.91-6.11h0c1.64,0,2.56,2.82,3.72,6.31.29.87.5,1.63.65,2.2a72.87,72.87,0,0,0,1.8-10c.2-1.87.33-3.66.39-5.35l1,.05c.13,2.92.11,5.37.06,7.17-.25,9-1.56,10.55-2.49,10.94A1.25,1.25,0,0,1,13.56,28.11Z"/></g></svg>