<svg xmlns="http://www.w3.org/2000/svg" viewBox="0 0 18 35"><defs><style>.cls-1{font-size:35px;fill:#bcbcbc;font-family:ArialMT, Arial;}.cls-2{fill:#231f20;}</style></defs><g id="Example_glyph" data-name="Example glyph"><g id="Line_2-2" data-name="Line 2"><text class="cls-1" transform="translate(0.25 27.99)">y</text></g></g><g id="Artwork_glyph" data-name="Artwork glyph"><path class="cls-2" d="M11.29,27.16A6.61,6.61,0,0,1,7,26.27a7.81,7.81,0,0,1-2.78-3.74,17.85,17.85,0,0,1-1.35-5,73.19,73.19,0,0,1-.82-7.66h1.3c.53,3,1,5.52,1.47,7.55.64,3,.94,4.07,1.92,4.88C8.47,23.7,11,23.24,12,23Z"/><path class="cls-2" d="M8.68,34.73A7.61,7.61,0,0,1,6.33,35a7,7,0,0,1-2.83-.8,2.74,2.74,0,0,1-1.36-3c2.62,2.28,4.24,2.4,5.23,2.09C10,32.49,10.09,28,13.85,14.4c.43-1.53.82-3.05,1.19-4.56h1.28c-.05.81-.12,1.62-.21,2.46,0,0-.13,1.27-.32,2.55C15.13,19.28,13,33.43,8.68,34.73Z"/></g></svg>