<svg xmlns="http://www.w3.org/2000/svg" viewBox="0 0 18 35"><defs><style>.a{fill:#231f20;}</style></defs><path class="a" d="M14.83,9.84c-.35,1.51-.72,3-1.12,4.56-.9,3.46-1.58,6.32-2.14,8.69A5.33,5.33,0,0,1,7,22.27c-.93-.81-1.21-1.89-1.81-4.88-.41-2-.89-4.58-1.38-7.55H2.58c.17,3.13.48,5.73.77,7.66a19.11,19.11,0,0,0,1.28,5,7.76,7.76,0,0,0,2.62,3.74,5.69,5.69,0,0,0,3.35.94c-1,3.94-1.6,5.62-3,6.08-.93.31-2.46.19-4.92-2.09A2.94,2.94,0,0,0,2.85,33,2.69,2.69,0,0,0,4,34.19a6.3,6.3,0,0,0,2.66.8,6.79,6.79,0,0,0,2.22-.26c4.09-1.3,6.08-15.45,6.7-19.88.18-1.28.31-2.55.31-2.55.08-.84.14-1.65.19-2.46Z"/></svg>