<svg xmlns="http://www.w3.org/2000/svg" viewBox="0 0 18 35"><defs><style>.a{fill:#231f20;}</style></defs><path class="a" d="M15,9.84c-.37,1.51-.76,3-1.19,4.56-.95,3.46-1.67,6.32-2.26,8.69-1.18.23-3.33.44-4.85-.82-1-.81-1.28-1.89-1.92-4.88-.43-2-.94-4.58-1.47-7.55H2.05a73.19,73.19,0,0,0,.82,7.66,17.85,17.85,0,0,0,1.35,5A7.81,7.81,0,0,0,7,26.27a6.33,6.33,0,0,0,3.56.94c-1,3.94-1.7,5.62-3.19,6.08-1,.31-2.61.19-5.23-2.09a2.74,2.74,0,0,0,1.36,3,7,7,0,0,0,2.83.8,7.61,7.61,0,0,0,2.35-.26c4.34-1.3,6.45-15.45,7.11-19.88.19-1.28.32-2.55.32-2.55.09-.84.16-1.65.21-2.46Z"/></svg>