<svg xmlns="http://www.w3.org/2000/svg" viewBox="0 0 18 35"><defs><style>.a{fill:#231f20;}</style></defs><rect class="a" x="1.61" y="9.82" width="14.65" height="2" transform="translate(-0.05 0.04) rotate(-0.28)"/><path class="a" d="M1.11,27.6l0-2H2q7.61-.11,15.17-.13v2q-7.56,0-15.15.13Z"/><path class="a" d="M5,26.76c-1.28-.39-4.28-.42-3.85-1.15S12.32,13,11.48,14s.49-.34.82-.84a4.11,4.11,0,0,0,.47-3,23.28,23.28,0,0,1,3.52,1.5c.24.32-8.25,9.52-9.48,10.7a5.46,5.46,0,0,0-1,1.28A6.27,6.27,0,0,0,5,26.76Z"/></svg>