<svg xmlns="http://www.w3.org/2000/svg" viewBox="0 0 18 35"><defs><style>.cls-1{fill:#231f20;}</style></defs><g id="Artwork_glyph" data-name="Artwork glyph"><path class="cls-1" d="M4.19,19v-.53A5.92,5.92,0,0,0,5,17.94c2.41-2,2.69-5.65,2.9-9C8,6.34,7.8,5.69,8.48,4.72a5.78,5.78,0,0,1,4.2-2.19A5.94,5.94,0,0,1,14,2.59L14,3.15c-.29,0-.66.09-1.09.19a4.93,4.93,0,0,0-2.16.81,3.27,3.27,0,0,0-.68.76c-1,1.41-.73,3.33-.77,4s-.18,4.84-1.72,7.24a9.13,9.13,0,0,1-1.31,1.57A7.69,7.69,0,0,1,4.19,19Z"/><path class="cls-1" d="M4.19,18.5V19a5.66,5.66,0,0,1,.79.53c2.41,2,2.69,5.66,2.9,9,.16,2.57-.07,3.21.61,4.18A5.82,5.82,0,0,0,14,34.92L14,34.36c-.29,0-.66-.09-1.09-.18a4.82,4.82,0,0,1-2.16-.82A3.08,3.08,0,0,1,10,32.6c-1-1.41-.73-3.32-.77-4s-.18-4.85-1.72-7.24a9.13,9.13,0,0,0-1.31-1.57A7.77,7.77,0,0,0,4.19,18.5Z"/></g></svg>