<svg xmlns="http://www.w3.org/2000/svg" viewBox="0 0 18 35"><defs><style>.cls-1{fill:#231f20;}</style></defs><g id="Artwork_glyph" data-name="Artwork glyph"><path class="cls-1" d="M13.66,19v-.53a6.65,6.65,0,0,1-.79-.54c-2.41-2-2.69-5.65-2.9-9-.16-2.57.07-3.22-.61-4.19a5.78,5.78,0,0,0-4.2-2.19,5.94,5.94,0,0,0-1.34.06l.06.56c.29,0,.66.09,1.09.19a4.93,4.93,0,0,1,2.16.81,3.27,3.27,0,0,1,.68.76c1,1.41.73,3.33.77,4s.18,4.84,1.72,7.24a8.92,8.92,0,0,0,1.32,1.57A7.51,7.51,0,0,0,13.66,19Z"/><path class="cls-1" d="M13.66,18.5V19a6.33,6.33,0,0,0-.79.53c-2.41,2-2.69,5.66-2.9,9-.16,2.57.07,3.21-.61,4.18a5.82,5.82,0,0,1-5.54,2.13l.06-.56c.29,0,.66-.09,1.09-.18a4.82,4.82,0,0,0,2.16-.82,3.08,3.08,0,0,0,.68-.76c1-1.41.73-3.32.77-4s.18-4.85,1.72-7.24a8.92,8.92,0,0,1,1.32-1.57A7.59,7.59,0,0,1,13.66,18.5Z"/></g></svg>