<svg xmlns="http://www.w3.org/2000/svg" viewBox="0 0 18 35"><defs><style>.cls-1{fill:#231f20;}</style></defs><g id="Artwork_glyph" data-name="Artwork glyph"><path class="cls-1" d="M5.68,33.63l-2.19,0Q8.15,18.3,12.83,2.94H15Q10.35,18.29,5.68,33.63Z"/><path class="cls-1" d="M10.14,29.15A9.36,9.36,0,0,1,3,25.38C1.7,23.61.49,20.49,2.08,15.7c.55-1.65,1.47-4.41,4.35-5.69a7.18,7.18,0,0,1,5.43-.47,5.23,5.23,0,0,1,2.25,1.37,5.45,5.45,0,0,1,1.42,3.62c0,.49-.06,1-.1,1.45l-.91.08-.37-1.6c-.67-2.64-3.41-4.38-6.9-2.63C4.57,13.42,1.52,19.35,4.61,24.2,5.94,26,11,28,13.07,25.42a6.32,6.32,0,0,0,1.37-3.68l1.09-.09a6.43,6.43,0,0,1-.86,5,6.77,6.77,0,0,1-3.11,2.32A4.33,4.33,0,0,1,10.14,29.15Z"/></g></svg>