<svg xmlns="http://www.w3.org/2000/svg" viewBox="0 0 18 35"><defs><style>.a{fill:#231f20;}</style></defs><path class="a" d="M13.82,28.2a6.67,6.67,0,0,1-1.32-.15A11.86,11.86,0,0,1,10,27.21a7.05,7.05,0,0,0-2.71-.74A10.17,10.17,0,0,0,4,27.23c-1.27.44-2,.7-2.61.06a1.21,1.21,0,0,1-.26-.52A1.41,1.41,0,0,1,1.3,26c.58-1.27,5.5-6.56,4.81-9.32a11.51,11.51,0,0,0-1.5-2.26,18.06,18.06,0,0,1-1.55-2.18,6.92,6.92,0,0,1-.71-2.71,7.69,7.69,0,0,1,1.54-5,7.38,7.38,0,0,1,8.87-2.1A7.35,7.35,0,0,1,16.6,9.14l-2-.05A5.24,5.24,0,0,0,6.26,4.6a5.6,5.6,0,0,0-2.1,4.49,6.34,6.34,0,0,0,.58,2.49c1,2.35,2.3,3.09,2.87,4.11.76,1.37.53,4-3.89,9.53a10.47,10.47,0,0,1,3.64-.75c1.47.06,5,1.59,5.48,1.8a2.58,2.58,0,0,0,2.35,0c.93-.64.76-2.18.74-2.29l.65.09c.45,1.3.41,2.58-.26,3.23C16,27.63,15.59,28.2,13.82,28.2Z"/><rect class="a" x="1.27" y="14.37" width="11.66" height="2"/></svg>