<svg xmlns="http://www.w3.org/2000/svg" viewBox="0 0 18 35"><defs><style>.a{fill:#231f20;}</style></defs><path class="a" d="M9.33,24.14c-1.88.17-2.65.05-3.33-.37-.23-.14-.82-.5-.75-.77.16-.59,3.27.29,6.93-.88,1.47-.47,1.93-.92,2.18-1.35a3.54,3.54,0,0,0-.5-3.68c-1-1.27-2.17-1.16-4.14-1.93-.64-.25-5.81-2.35-6.34-6.05A5.83,5.83,0,0,1,5,4.66c2.33-2.41,6.59-2.37,8.56-.6a7.68,7.68,0,0,1,1.58,2.29,8.82,8.82,0,0,1,.78,2.59l-1,0A8.48,8.48,0,0,0,14,7a7.47,7.47,0,0,0-1.39-1.68,5.15,5.15,0,0,0-6.43.43A4.08,4.08,0,0,0,5,8.77c.21,2.45,3.25,3.92,4.7,4.61,2.82,1.36,3.76.64,5.07,1.93,1.58,1.55,2.18,4.5,1,6.35a5.17,5.17,0,0,1-3.12,2A18.21,18.21,0,0,1,9.33,24.14Z"/><path class="a" d="M8.3,34.83a6.11,6.11,0,0,1-3.55-1.1,6.26,6.26,0,0,1-2.37-4.3c0-.52-.08-1-.12-1.58,0-.31,0-.62,0-.93h.52a5.9,5.9,0,0,0,.09,1,6.76,6.76,0,0,0,.71,2.15,6,6,0,0,0,2.24,2.41,6.54,6.54,0,0,0,5.39.31,3.48,3.48,0,0,0,2.18-1.35,3.54,3.54,0,0,0-.51-3.68c-1-1.27-2.16-1.16-4.13-1.93-.65-.25-5.81-2.35-6.34-6A5.94,5.94,0,0,1,4,15.34a5.89,5.89,0,0,1,2.93-1.65,6.06,6.06,0,0,1,2.45,0,7.68,7.68,0,0,1,2.86,1.06c.55,1.62-5.37-.06-7.08,1.72a4,4,0,0,0-1.2,3c.22,2.45,3.26,3.92,4.7,4.61,2.83,1.37,3.76.64,5.08,1.94,1.57,1.54,2.18,4.49,1,6.34a5.2,5.2,0,0,1-3.13,2A12.59,12.59,0,0,1,8.3,34.83Z"/></svg>