<svg xmlns="http://www.w3.org/2000/svg" viewBox="0 0 18 35"><defs><style>.a{fill:#231f20;}</style></defs><path class="a" d="M9,23.62a3.71,3.71,0,0,1-1.86-.77c-2.29-1.68-2.43-5.19-2.46-6-.06-1.49-.16-3.94,1.54-5.71C6.59,10.72,8,9.31,9.67,9.62a4.13,4.13,0,0,1,3,3.8l-.89.1a3,3,0,0,0-2.5-1.82,2.57,2.57,0,0,0-1.64.63c-1.33,1.12-1.18,3.19-1.09,4.38.08,1,.31,4.1,2.08,4.69a2.46,2.46,0,0,0,1.84-.21,3.33,3.33,0,0,0,1.62-2.64L13,18.5a4.49,4.49,0,0,1-1.55,4.44A3.78,3.78,0,0,1,9,23.62Z"/><path class="a" d="M9,28.58c-4.51,0-8-5.73-8-13s3.54-13,8-13,8,5.73,8,13.05S13.54,28.58,9,28.58ZM9,4.48c-3.28,0-6,5.06-6,11s2.77,11,6,11,6.05-5.06,6.05-11S12.31,4.48,9,4.48Z"/></svg>