<svg xmlns="http://www.w3.org/2000/svg" viewBox="0 0 18 35"><defs><style>.a,.b{fill:#231f20;}.a{stroke:#231f20;stroke-miterlimit:10;}</style></defs><path class="a" d="M11.32,21.3l-.43-.51C10.22,20,9.3,19,8.16,17.73c-.46-.49-1.06-1.13-1.8-1.86l1.2-.06,5.33,5.48Z"/><rect class="a" x="5.5" y="9.77" width="0.93" height="11.53"/><path class="a" d="M9.5,16.41H6.18v-.93H9.5a2.22,2.22,0,0,0,2.22-2.23v-.32A2.22,2.22,0,0,0,9.5,10.7H6.18V9.77H9.5a3.16,3.16,0,0,1,3.15,3.16v.32A3.16,3.16,0,0,1,9.5,16.41Z"/><path class="b" d="M9,28.31c-4.51,0-8-5.74-8-13s3.54-13,8.05-13,8.05,5.73,8.05,13.05S13.51,28.31,9,28.31ZM9,4.21c-3.28,0-6,5.06-6,11.05s2.77,11,6.05,11,6.05-5.06,6.05-11S12.28,4.21,9,4.21Z"/></svg>