<svg xmlns="http://www.w3.org/2000/svg" viewBox="0 0 18 35"><defs><style>.a{fill:#231f20;}</style></defs><path class="a" d="M5.3,5.9A3.5,3.5,0,0,1,6.5,3.6a4.4,4.4,0,0,1,2.9-.9,4.1,4.1,0,0,1,2.8.9,3,3,0,0,1,1,2.3,3,3,0,0,1-1.7,2.7,3.1,3.1,0,0,1,2,2.9,3.1,3.1,0,0,1-1.2,2.5,4.9,4.9,0,0,1-3.1.9,4.6,4.6,0,0,1-3.1-1,3.8,3.8,0,0,1-1.2-2.6h1.8a2.1,2.1,0,0,0,.8,1.4,2.6,2.6,0,0,0,1.7.5,2.7,2.7,0,0,0,1.7-.5,1.6,1.6,0,0,0,.6-1.3,1.5,1.5,0,0,0-.8-1.4,5,5,0,0,0-2.4-.4H8.1V8h.7a4.3,4.3,0,0,0,2-.4,1.4,1.4,0,0,0,.7-1.3A1.5,1.5,0,0,0,11,5a2.2,2.2,0,0,0-1.5-.5,2.2,2.2,0,0,0-1.5.5,2,2,0,0,0-.7,1.1Z"/></svg>
