<svg xmlns="http://www.w3.org/2000/svg" viewBox="0 0 18 35"><defs><style>.a{fill:#231f20;}</style></defs><rect class="a" x="4.1" y="3" width="1.6" height="10.8"/><path class="a" d="M1.6,7.2,4.7,3H5.7V5L2.6,8.7Z"/><path class="a" d="M6.1,28.5l6.4-25h2.1l-6.4,25Z"/><path class="a" d="M9.1,24a4.1,4.1,0,0,1,1.1-2.7,3.7,3.7,0,0,1,2.7-1,3.5,3.5,0,0,1,2.6.9,3,3,0,0,1,1,2.3c0,1.3-.7,2.5-2.1,3.6L11.7,30h4.9v1.8H9V30.2l4.1-4c1-1,1.5-1.8,1.5-2.5a1.6,1.6,0,0,0-.5-1.2,1.8,1.8,0,0,0-1.3-.5,1.7,1.7,0,0,0-1.3.6,2.9,2.9,0,0,0-.7,1.6Z"/></svg>
