<svg xmlns="http://www.w3.org/2000/svg" viewBox="0 0 18 35"><defs><style>.a{fill:#231f20;}</style></defs><path class="a" d="M1.6,5.9A3.2,3.2,0,0,1,2.7,3.7a4.1,4.1,0,0,1,2.7-.8,4,4,0,0,1,2.6.8,2.8,2.8,0,0,1,.9,2.1,2.8,2.8,0,0,1-1.5,2.5,3,3,0,0,1,1.8,2.7,3,3,0,0,1-1.1,2.3,4.5,4.5,0,0,1-2.9.9,4.3,4.3,0,0,1-2.9-.9,3.5,3.5,0,0,1-1.1-2.4H3a2,2,0,0,0,.7,1.2,2.3,2.3,0,0,0,1.5.5,2.4,2.4,0,0,0,1.5-.4,1.4,1.4,0,0,0,.6-1.2,1.3,1.3,0,0,0-.7-1.3,4.4,4.4,0,0,0-2.2-.4H3.7V7.9h.7a3.9,3.9,0,0,0,1.8-.4,1.3,1.3,0,0,0,.7-1.2A1.4,1.4,0,0,0,6.4,5a2,2,0,0,0-1.4-.5,2,2,0,0,0-1.4.5A1.9,1.9,0,0,0,3,6.1Z"/><path class="a" d="M6.1,28.5l6.4-25h2.1l-6.4,25Z"/><path class="a" d="M12.6,32V29.3H8.1V27.7L12.5,20h1.8v7.7h1.3v1.6H14.3V32Zm0-4.3V23.4l-2.4,4.3Z"/></svg>
