<svg xmlns="http://www.w3.org/2000/svg" viewBox="0 0 18 35"><defs><style>.a{fill:#231f20;}</style></defs><ellipse class="a" cx="8.87" cy="11.03" rx="1.77" ry="1.82" transform="translate(-1.39 1.28) rotate(-7.68)"/><path class="a" d="M9.72,13.86c.88,6.23-1.06,8.27-3.12,10.42a15.69,15.69,0,0,0-2.44,3.07c-.43,2.09.07,3.73,1.46,4.74a5.38,5.38,0,0,0,5.67.19,4.73,4.73,0,0,0,1.25-1.08,7.35,7.35,0,0,0,1.73-4.14h1.17a6.73,6.73,0,0,1-3.14,7,7.36,7.36,0,0,1-7.86-.3c-2.05-1.5-2.85-4-2.2-6.94l.1-.27a17.66,17.66,0,0,1,2.81-3.59c1.94-2,3.33-3.5,2.59-8.77Z"/></svg>