<svg xmlns="http://www.w3.org/2000/svg" viewBox="0 0 18 35"><defs><style>.a{fill:#231f20;}</style></defs><rect class="a" x="5.87" y="13.26" width="6.89" height="2"/><line class="a" x1="1.8" y1="27.98" x2="8.72" y2="3.22"/><path class="a" d="M3.65,27.89H1.52Q5,15.36,8.41,2.85h2Z"/><line class="a" x1="8.23" y1="3.3" x2="16.89" y2="27.89"/><path class="a" d="M15.16,27.89,8.5,2.84h1.81q3.51,12.52,7,25.05Z"/><path class="a" d="M4.5,3.14l-1,0C5.49-.37,6.89-.72,7.59-.67a13.3,13.3,0,0,1,3,1.13,6.29,6.29,0,0,0,1.68.66C13,1.2,14,1,15.39-.27l1.16,0c-.44.81-1.91,3.3-3.89,3.33a9,9,0,0,1-3.22-1c-1-.48-1.24-.72-1.79-.77C7,1.26,5.91,1.52,4.5,3.14Z"/></svg>