<svg xmlns="http://www.w3.org/2000/svg" viewBox="0 0 18 35"><defs><style>.a{fill:#231f20;}</style></defs><path class="a" d="M10.78,28.53a10.59,10.59,0,0,1-5.2-1.42,9.61,9.61,0,0,1-3.21-3.18C.77,21.4.74,18.86.72,16.17a21.32,21.32,0,0,1,.41-4.4A13.77,13.77,0,0,1,2.59,7.33a9,9,0,0,1,3-3.54c2.81-1.82,7.56-1.86,9.88,1A6.3,6.3,0,0,1,16.8,8.66l-1.16,0a6,6,0,0,0-1.52-2.95,5.93,5.93,0,0,0-5.2-1.52A7.15,7.15,0,0,0,4.47,7.56,11.4,11.4,0,0,0,2.9,11.82a18.07,18.07,0,0,0-.39,4.44c.07,2.16.13,4.44,1.55,6.61a7.8,7.8,0,0,0,2.53,2.52C8.66,26.61,12,27.15,14,25.34a4.49,4.49,0,0,0,1.25-2.29h1.29a5.16,5.16,0,0,1-1,3.53A5.87,5.87,0,0,1,10.78,28.53Z"/><path class="a" d="M7.51,34.42c-.51,0-1-.12-1-.12A8.78,8.78,0,0,1,5.19,34l-.1-1.11A8,8,0,0,0,8.7,33a4.5,4.5,0,0,0,1.75-.85,3.08,3.08,0,0,0,.25-.24l-1-.3a4.37,4.37,0,0,1-2-.87c-.26-.28-.81-.86.41-3.72l1.84.79a10.35,10.35,0,0,0-.55,1.62c.26.09.61.19.88.26a5.22,5.22,0,0,1,2.1.88,1.92,1.92,0,0,1,.59,1.27c0,1-1.18,1.61-1.7,1.91A6.7,6.7,0,0,1,7.51,34.42Z"/></svg>