<svg xmlns="http://www.w3.org/2000/svg" viewBox="0 0 18 35"><defs><style>.a{fill:#231f20;}</style></defs><path class="a" d="M4.85,28.1c-.79,0-1.58,0-2.36-.05l-1,0L1.43,3.12l.9-.1c.89-.09,2.34-.07,3.4,0h1A11.08,11.08,0,0,1,14.3,6c3.15,3.19,3,7.7,2.89,9.18v.36c-.16,3.6-.44,10.31-4.12,11.7A22.54,22.54,0,0,1,7.89,28l-1.36.05Q5.69,28.1,4.85,28.1Zm-1.32-2c1,0,2,0,2.94,0L7.77,26a21,21,0,0,0,4.58-.62c2.45-.93,2.71-7.23,2.83-9.92v-.36c.06-1.27.23-5.11-2.31-7.69A9,9,0,0,0,6.72,5c-.12,0-.52,0-1,0C5.05,5,4.17,5,3.44,5Z"/><rect class="a" x="-0.38" y="14.47" width="10.06" height="2"/></svg>