<svg xmlns="http://www.w3.org/2000/svg" viewBox="0 0 18 35"><defs><style>.a{fill:#231f20;}</style></defs><rect class="a" x="-10.1" y="14.53" width="25.05" height="2" transform="translate(-13.11 17.92) rotate(-89.83)"/><rect class="a" x="3.05" y="14.52" width="25.07" height="2" transform="translate(0.02 31.07) rotate(-89.83)"/><path class="a" d="M14.55,28.05a23.89,23.89,0,0,1-1.76-2.45A26.43,26.43,0,0,1,10.25,20c-1.2-3.44-2.46-6.86-3.64-10.31a3.89,3.89,0,0,0-1.39-2,3.39,3.39,0,0,0-1.76-.58c0-1.35,0-2.7,0-4A15.24,15.24,0,0,1,6.23,5.45,17.43,17.43,0,0,1,9,9.91a63.78,63.78,0,0,1,3.73,9.86,4.3,4.3,0,0,0,1.8,2.91,3.31,3.31,0,0,0,2,.29Z"/><path class="a" d="M3.47,3.22l-1,0C4.46-.29,5.85-.64,6.56-.59a13.12,13.12,0,0,1,3,1.13,6.56,6.56,0,0,0,1.68.66A4,4,0,0,0,14.36-.19l1.16,0c-.44.81-1.91,3.3-3.89,3.33a9,9,0,0,1-3.22-1c-1.06-.47-1.24-.71-1.79-.77C5.92,1.34,4.88,1.61,3.47,3.22Z"/></svg>