<svg xmlns="http://www.w3.org/2000/svg" viewBox="0 0 18 35"><defs><style>.a{fill:#231f20;}</style></defs><path class="a" d="M9.24,28.84C4.49,28.84.77,23,.77,15.52S4.49,2.21,9.24,2.21,17.7,8.06,17.7,15.52,14,28.84,9.24,28.84Zm0-24.63c-3.51,0-6.47,5.18-6.47,11.31s3,11.32,6.47,11.32,6.46-5.18,6.46-11.32S12.74,4.21,9.24,4.21Z"/><path class="a" d="M3.7,3.08l-1,0C4.68-.43,6.08-.78,6.79-.73A13.12,13.12,0,0,1,9.78.4a6.42,6.42,0,0,0,1.68.66c.72.08,1.75-.12,3.12-1.39l1.16,0C15.3.5,13.83,3,11.85,3A8.72,8.72,0,0,1,8.64,2c-1.06-.47-1.24-.71-1.79-.77S5.1,1.47,3.7,3.08Z"/></svg>