<svg xmlns="http://www.w3.org/2000/svg" viewBox="0 0 18 35"><defs><style>.a{fill:#231f20;}</style></defs><path class="a" d="M5,27.6H3V9.83C3,7.32,5.16,3,7.79,2.7c1.4-.18,3.76-.48,5.38.79a4.21,4.21,0,0,1,1.54,3c.28,2.37-1,4.32-2.07,5.9a6,6,0,0,0-1.31,2.7c0,1,.87,1.64,2.24,2.61a11.67,11.67,0,0,1,2.17,1.8c1,1.05,2.42,3.33-.5,6.22a3.52,3.52,0,0,1-2.14,1.1,7,7,0,0,1-2.66,0,4.61,4.61,0,0,1-2.71-1.89,3.9,3.9,0,0,1-.49-1.14L8,23.43a3.54,3.54,0,0,0,2.54,1.73,4.16,4.16,0,0,0,3.28-.79A3,3,0,0,0,15,22.1a2.14,2.14,0,0,0-.71-1.25,10.46,10.46,0,0,0-1.85-1.53c-1.42-1-3-2.13-3.09-4.18,0-1.36.78-2.58,1.65-3.88s1.94-2.91,1.75-4.55a2.3,2.3,0,0,0-.79-1.65c-1-.76-2.8-.52-3.9-.38C6.77,4.85,5,7.88,5,9.83Z"/></svg>