<svg xmlns="http://www.w3.org/2000/svg" viewBox="0 0 18 35"><defs><style>.a{fill:#231f20;}</style></defs><path class="a" d="M16.41,25.79c-.22-.38-.41-.73-.6-1.09A10.57,10.57,0,0,0,16,22.76L16,22c0-.64.07-1.27.1-1.91s.07-1.4.12-2.11a12.4,12.4,0,0,0-.13-3.23c0-.13-.17-.62-.23-.87l0-.13a2,2,0,0,0-.18-.54,8.25,8.25,0,0,0-3.31-2.93C9.51,9,4,9.16,2,12.34a5.33,5.33,0,0,0-.67,3.49l1.46.1a4.16,4.16,0,0,1,.65-2.57c1.71-2.5,6.21-2.24,8.05-1.42A6.31,6.31,0,0,1,13.89,14l.06.25c.06.28.21.82.25,1a11.92,11.92,0,0,1,.11,2.42s0,0,0-.09A1.66,1.66,0,0,0,14,17c-.17-.23-10.77.91-12.3,3.17a4.7,4.7,0,0,0-.85,2.93c.17,2.34,2.31,3.79,3.22,4.3a8.83,8.83,0,0,0,4.28,1,10.92,10.92,0,0,0,3.42-.55,8.25,8.25,0,0,0,2.69-1.42c.07.07.12.15.2.23a3.4,3.4,0,0,0,1.73.81h1.09C17.13,27,16.77,26.39,16.41,25.79Zm-5.3.33a7.81,7.81,0,0,1-6-.32C4.46,25.44,3,24.44,2.84,23a2.7,2.7,0,0,1,.5-1.73c1-1.3,3.27-1.5,7.25-1.75.94-.06,1.89-.08,2.83-.08h.75l0,.56c0,.63-.06,1.26-.1,1.89l0,.77c-.07,1-.09,1.37-.1,1.52A4.58,4.58,0,0,1,11.11,26.12Z"/><path class="a" d="M8.31,7.61,6.22,5H9.08l.55,2.66Z"/></svg>