<svg xmlns="http://www.w3.org/2000/svg" viewBox="0 0 18 35"><defs><style>.a{fill:#231f20;}</style></defs><path class="a" d="M16.64,25.79c-.22-.38-.41-.73-.61-1.09a9.3,9.3,0,0,0,.18-1.94l.05-.78c0-.64.08-1.27.11-1.91s.07-1.4.12-2.11a12.86,12.86,0,0,0-.13-3.23c0-.13-.18-.62-.23-.87l0-.13a1.76,1.76,0,0,0-.19-.54,8.27,8.27,0,0,0-3.3-2.93C9.74,9,4.23,9.16,2.25,12.34a5.4,5.4,0,0,0-.68,3.49l1.47.1a4.09,4.09,0,0,1,.65-2.57c1.7-2.5,6.21-2.24,8.05-1.41A6.4,6.4,0,0,1,14.12,14l.05.25c.07.28.22.82.26,1a12.69,12.69,0,0,1,.11,2.42s0,0,0-.09a1.77,1.77,0,0,0-.28-.54c-.17-.23-10.77.91-12.3,3.17a4.69,4.69,0,0,0-.86,2.93c.18,2.34,2.32,3.79,3.23,4.3a8.8,8.8,0,0,0,4.28,1A10.86,10.86,0,0,0,12,27.89a8.15,8.15,0,0,0,2.69-1.42l.21.23a3.5,3.5,0,0,0,1.73.82h1.09C17.35,27,17,26.39,16.64,25.79Zm-5.31.33a7.79,7.79,0,0,1-6-.32c-.65-.36-2.15-1.36-2.26-2.82a2.64,2.64,0,0,1,.5-1.73c1-1.29,3.26-1.5,7.24-1.75.95-.05,1.89-.08,2.83-.08h.76l0,.56c0,.63-.06,1.26-.1,1.89l0,.77c-.07,1-.09,1.37-.11,1.52A4.55,4.55,0,0,1,11.33,26.12Z"/><path class="a" d="M10.07,7.61,12.32,5H9.25l-.6,2.66Z"/></svg>