<svg xmlns="http://www.w3.org/2000/svg" viewBox="0 0 18 35"><defs><style>.a{fill:#231f20;}</style></defs><path class="a" d="M16.28,25.79c-.22-.38-.41-.73-.61-1.09a10.57,10.57,0,0,0,.18-1.94L15.9,22c0-.64.07-1.27.11-1.91s.07-1.4.12-2.11A12.86,12.86,0,0,0,16,14.73c0-.13-.18-.62-.24-.87l0-.13a2,2,0,0,0-.18-.54,8.25,8.25,0,0,0-3.31-2.93C9.38,9,3.87,9.16,1.89,12.34a5.28,5.28,0,0,0-.68,3.49l1.47.1a4.09,4.09,0,0,1,.65-2.57c1.7-2.5,6.21-2.24,8.05-1.42A6.34,6.34,0,0,1,13.75,14l.06.25c.06.28.22.82.26,1a11.79,11.79,0,0,1,.1,2.42.32.32,0,0,0,0-.09,1.94,1.94,0,0,0-.28-.54c-.18-.23-10.78.91-12.3,3.17a4.63,4.63,0,0,0-.86,2.93C.89,25.45,3,26.9,3.94,27.41a8.8,8.8,0,0,0,4.28,1,10.91,10.91,0,0,0,3.41-.55,8.15,8.15,0,0,0,2.69-1.42c.07.07.12.15.21.23a3.37,3.37,0,0,0,1.73.81h1.09C17,27,16.63,26.39,16.28,25.79ZM11,26.12a7.81,7.81,0,0,1-6-.32c-.64-.36-2.14-1.36-2.25-2.82a2.64,2.64,0,0,1,.5-1.73c1-1.3,3.26-1.5,7.24-1.75.94-.06,1.89-.08,2.83-.08H14L14,20c0,.63-.06,1.26-.11,1.89l-.05.77c-.06,1-.09,1.37-.1,1.52A4.55,4.55,0,0,1,11,26.12Z"/><path class="a" d="M12,8,8.45,6.65,5.64,8,2.58,7.87,8.43,4.43l7,3.44Z"/></svg>