<svg xmlns="http://www.w3.org/2000/svg" viewBox="0 0 18 35"><defs><style>.a{fill:#231f20;}</style></defs><path class="a" d="M16.63,25.79c-.22-.38-.41-.73-.6-1.09a10.24,10.24,0,0,0,.17-1.94l.06-.78c0-.64.07-1.27.1-1.91s.07-1.4.12-2.11a12.4,12.4,0,0,0-.13-3.23c0-.13-.17-.62-.23-.87l0-.13a2,2,0,0,0-.18-.54,8.33,8.33,0,0,0-3.31-2.93C9.73,9,4.22,9.16,2.24,12.34a5.4,5.4,0,0,0-.68,3.49l1.47.1a4.09,4.09,0,0,1,.65-2.57c1.7-2.5,6.21-2.24,8.05-1.42A6.49,6.49,0,0,1,14.11,14l.05.25c.07.28.22.82.26,1a12.69,12.69,0,0,1,.11,2.42s0,0,0-.09a1.66,1.66,0,0,0-.28-.54c-.17-.23-10.77.91-12.3,3.17a4.7,4.7,0,0,0-.85,2.93c.17,2.34,2.31,3.79,3.22,4.3a8.8,8.8,0,0,0,4.28,1A10.86,10.86,0,0,0,12,27.89a8.3,8.3,0,0,0,2.7-1.42c.07.07.12.15.2.23a3.4,3.4,0,0,0,1.73.81H17.7C17.34,27,17,26.39,16.63,25.79Zm-5.31.33a7.79,7.79,0,0,1-6-.32c-.64-.36-2.15-1.36-2.26-2.82a2.64,2.64,0,0,1,.5-1.73c1-1.3,3.27-1.5,7.25-1.75.94-.06,1.88-.08,2.83-.08h.75l0,.56c0,.63-.06,1.26-.1,1.89l0,.77c-.07,1-.09,1.37-.11,1.52A4.55,4.55,0,0,1,11.32,26.12Z"/><path class="a" d="M4.16,8.13l-1,0c2-3.56,3.35-3.91,4.05-3.85a12.88,12.88,0,0,1,3,1.12,6,6,0,0,0,1.68.66c.72.09,1.75-.12,3.12-1.39l1.16,0c-.44.81-1.91,3.3-3.89,3.33a9,9,0,0,1-3.22-1c-1-.48-1.23-.72-1.78-.77C6.61,6.26,5.57,6.52,4.16,8.13Z"/></svg>