<svg xmlns="http://www.w3.org/2000/svg" viewBox="0 0 18 35"><defs><style>.a{fill:#231f20;}.b{fill:none;stroke:#231f20;stroke-miterlimit:10;stroke-width:2px;}</style></defs><path class="a" d="M16.61,25.79c-.22-.38-.41-.73-.61-1.09a10.57,10.57,0,0,0,.18-1.94l.05-.78c0-.64.08-1.27.11-1.91s.07-1.4.12-2.11a12.86,12.86,0,0,0-.13-3.23c0-.13-.18-.62-.23-.87l0-.13a2.07,2.07,0,0,0-.19-.54,8.25,8.25,0,0,0-3.31-2.93C9.71,9,4.2,9.16,2.22,12.34a5.4,5.4,0,0,0-.68,3.49l1.47.1a4.09,4.09,0,0,1,.65-2.57c1.7-2.5,6.21-2.24,8.05-1.42A6.49,6.49,0,0,1,14.09,14l.05.25c.07.28.22.82.26,1a12.69,12.69,0,0,1,.11,2.42s0,0,0-.09A1.66,1.66,0,0,0,14.2,17c-.18-.23-10.77.91-12.3,3.17A4.69,4.69,0,0,0,1,23.11c.18,2.34,2.32,3.79,3.23,4.3a8.8,8.8,0,0,0,4.28,1A10.86,10.86,0,0,0,12,27.89a8.15,8.15,0,0,0,2.69-1.42l.21.23a3.37,3.37,0,0,0,1.73.81h1.09C17.32,27,17,26.39,16.61,25.79Zm-5.31.33a7.79,7.79,0,0,1-6-.32C4.65,25.44,3.15,24.44,3,23a2.64,2.64,0,0,1,.5-1.73c1-1.3,3.26-1.5,7.24-1.75.94-.06,1.89-.08,2.83-.08h.76l0,.56c0,.63-.06,1.26-.1,1.89l-.06.77c-.06,1-.08,1.37-.1,1.52A4.55,4.55,0,0,1,11.3,26.12Z"/><circle class="b" cx="8.72" cy="6.58" r="2.87"/></svg>