<svg xmlns="http://www.w3.org/2000/svg" viewBox="0 0 18 35"><defs><style>.a{fill:#231f20;}</style></defs><path class="a" d="M9.33,24.7a16.08,16.08,0,0,0,.1-1.94l0-.78c0-.64,0-1.27.06-1.91s0-1.4.07-2.11a21.7,21.7,0,0,0-.07-3.23l-.14-.87v-.13a3.24,3.24,0,0,0-.11-.54,7.42,7.42,0,0,0-1.91-2.93,3.85,3.85,0,0,0-6,2.08A9,9,0,0,0,1,15.83l.85.1a6.45,6.45,0,0,1,.38-2.57,3,3,0,0,1,4.65-1.42A5.54,5.54,0,0,1,8.22,14l0,.25c0,.28.13.82.15,1a21.72,21.72,0,0,1,.07,2.42s0,0,0-.09A2.35,2.35,0,0,0,8.29,17c-.1-.23-6.23.91-7.11,3.17a7.22,7.22,0,0,0-.5,2.93,6.38,6.38,0,0,0,1.87,4.3,3.52,3.52,0,0,0,2.47,1,3.92,3.92,0,0,0,2-.55,4.72,4.72,0,0,0,1.56-1.42A6.49,6.49,0,0,0,9.33,24.7ZM6.61,26.12a2.82,2.82,0,0,1-3.47-.32A4.29,4.29,0,0,1,1.84,23a4.17,4.17,0,0,1,.29-1.73C2.68,20,4,19.75,6.31,19.5A15,15,0,0,1,8,19.42h.44c0,.19,0,.38,0,.56l-.06,1.89,0,.77c0,1,0,1.37-.06,1.52A3.34,3.34,0,0,1,6.61,26.12Z"/><path class="a" d="M13.25,28.24c-2,.2-3.31-2.33-3.58-2.84a15.2,15.2,0,0,1-1.26-7.21c.05-1.4.17-4.89,1.82-7C11.71,9.33,14,9,15.66,11.27c1.86,2.54,1.67,6.62,1.64,7.08l-.05.9-8.1-.18.2-1.94,6.81.12a8.32,8.32,0,0,0-1.22-4.41,2.34,2.34,0,0,0-4,0C9.69,14.37,9.6,17,9.56,18.31a11.89,11.89,0,0,0,1,5.75c.17.33,1.26,2.43,2.87,2.18,1.18-.19,1.93-1.53,2.13-1.9A8.28,8.28,0,0,0,16.28,22l.44,0a8.6,8.6,0,0,1-.16,2.61C16,27.05,14.42,28.13,13.25,28.24Z"/></svg>