<svg xmlns="http://www.w3.org/2000/svg" viewBox="0 0 18 35"><defs><style>.a{fill:#231f20;}</style></defs><path class="a" d="M9.28,28.52c-3.54,0-5.69-3.26-6.26-4.14a10.38,10.38,0,0,1-1.3-7.94,8.78,8.78,0,0,1,3.73-5.65c.64-.4,4.08-2.44,7.28-.62A7,7,0,0,1,15.9,15l-.69.05A6.27,6.27,0,0,0,11.82,12a6.34,6.34,0,0,0-5.3.54,6.84,6.84,0,0,0-2.85,4.42,8.29,8.29,0,0,0,1,6.38c.4.61,2.11,3.24,4.74,3.22A5.7,5.7,0,0,0,13,24.87a8.05,8.05,0,0,0,2.28-3.18l.78-.05A7.49,7.49,0,0,1,14.29,26,7,7,0,0,1,9.28,28.52Z"/><path class="a" d="M7.93,35c-.51,0-1-.12-1-.12a11,11,0,0,1-1.28-.31l-.1-1.12a8,8,0,0,0,3.61.15,4.3,4.3,0,0,0,1.75-.85l.26-.23-1-.3a4.51,4.51,0,0,1-2-.88c-.26-.27-.81-.86.41-3.72l1.84.79A10.35,10.35,0,0,0,9.79,30c.26.09.62.19.88.26a5.22,5.22,0,0,1,2.1.88,1.85,1.85,0,0,1,.59,1.27c0,1-1.18,1.62-1.7,1.91A6.6,6.6,0,0,1,7.93,35Z"/></svg>