<svg xmlns="http://www.w3.org/2000/svg" viewBox="0 0 18 35"><defs><style>.a{fill:#231f20;}</style></defs><path class="a" d="M9.69,28.24A7.93,7.93,0,0,1,3.51,25.4a9.69,9.69,0,0,1-2.2-7.21c.09-1.4.31-4.89,3.17-7a7.91,7.91,0,0,1,9.39.07,8.27,8.27,0,0,1,2.84,7.08l-.1.9-14-.18.34-1.94,11.79.12a5.93,5.93,0,0,0-2.1-4.41,5.88,5.88,0,0,0-7,0C3.54,14.37,3.39,17,3.31,18.31A7.65,7.65,0,0,0,5,24.06a6.25,6.25,0,0,0,5,2.18,5.81,5.81,0,0,0,3.67-1.9A5.88,5.88,0,0,0,14.93,22l.78,0a5.12,5.12,0,0,1-.29,2.61C14.47,27.05,11.73,28.13,9.69,28.24Z"/><path class="a" d="M8.4,7.67,6.31,5.06H9.16l.56,2.66Z"/></svg>