<svg xmlns="http://www.w3.org/2000/svg" viewBox="0 0 18 35"><defs><style>.a{fill:#231f20;}</style></defs><path class="a" d="M9.67,28.24A8,8,0,0,1,3.49,25.4,9.63,9.63,0,0,1,1.3,18.19c.08-1.4.3-4.89,3.16-7a7.91,7.91,0,0,1,9.39.07,8.27,8.27,0,0,1,2.84,7.08l-.09.9-14-.18.34-1.94,11.79.12a5.93,5.93,0,0,0-2.1-4.41,5.88,5.88,0,0,0-7,0C3.52,14.37,3.37,17,3.29,18.31A7.65,7.65,0,0,0,5,24.06a6.25,6.25,0,0,0,5,2.18,5.85,5.85,0,0,0,3.68-1.9A6.14,6.14,0,0,0,14.92,22l.77,0a5.21,5.21,0,0,1-.28,2.61C14.45,27.05,11.71,28.13,9.67,28.24Z"/><path class="a" d="M10.15,7.67l2.26-2.61H9.34l-.6,2.66Z"/></svg>