<svg xmlns="http://www.w3.org/2000/svg" viewBox="0 0 18 35"><defs><style>.a{fill:#231f20;}</style></defs><path class="a" d="M9,28.51c-4.2,0-7.48-4.17-7.48-9.5S4.8,9.51,9,9.51s7.48,4.17,7.48,9.5S13.2,28.51,9,28.51ZM9,10.94c-3.1,0-5.72,3.69-5.72,8.07S5.9,27.08,9,27.08s5.72-3.69,5.72-8.07S12.1,10.94,9,10.94Z"/><path class="a" d="M14.79,17.79A68.35,68.35,0,0,0,11.88,9a15.32,15.32,0,0,0-1-1.64s-.34-.49-.75-1A24.37,24.37,0,0,0,5.92,2.94L8,3c.57-.08,4.46,3,5.74,5.14s1.86,4.66,2.73,9.6Z"/><path class="a" d="M4.45,8.43l10.11-5"/><path class="a" d="M4.6,8.91l-.83-.62C4.34,7.85,4.93,7.41,5.56,7A38.51,38.51,0,0,1,14,2.64l1,1.61Z"/></svg>