<svg xmlns="http://www.w3.org/2000/svg" viewBox="0 0 18 35"><defs><style>.a{fill:#231f20;}</style></defs><path class="a" d="M16.36,12.57a7.67,7.67,0,0,0-5.22-2.81,11.58,11.58,0,0,0-7.61,1.5l-.32-.39c-.58-.48-1.65-.89-2-.43a1.41,1.41,0,0,0-.08,1.19.62.62,0,0,1,.32-.58.54.54,0,0,1,.48.12c.55.4.44,1.52.44,1.52l-.14,15.5H3.76c0-.78,0-9.23,0-13.78a8.51,8.51,0,0,1,6.73-2.93c1.34.07,3.39.56,4.27,1.57a1.62,1.62,0,0,1,.43,1.37C15,16.51,15,22.27,15.09,28.2h1.78c-.08-5.9-.12-11.65.11-13.71A3,3,0,0,0,16.36,12.57Z"/><path class="a" d="M3.46,7.73l-1,0c2-3.55,3.35-3.9,4.06-3.85a13.12,13.12,0,0,1,3,1.13,6.56,6.56,0,0,0,1.68.66c.72.08,1.76-.12,3.13-1.4l1.16,0c-.44.81-1.91,3.3-3.89,3.33a9.17,9.17,0,0,1-3.22-1C7.34,6.21,7.16,6,6.61,5.92,5.91,5.85,4.87,6.11,3.46,7.73Z"/></svg>