<svg xmlns="http://www.w3.org/2000/svg" viewBox="0 0 18 35"><defs><style>.a{fill:#231f20;}</style></defs><path class="a" d="M9,28.47c-4.2,0-7.48-4.17-7.48-9.5S4.81,9.47,9,9.47s7.48,4.17,7.48,9.5S13.21,28.47,9,28.47ZM9,10.9C5.91,10.9,3.3,14.59,3.3,19S5.91,27,9,27s5.72-3.69,5.72-8.07S12.11,10.9,9,10.9Z"/><path class="a" d="M4.17,8.06l-1,0c2-3.56,3.35-3.91,4.05-3.86a13.12,13.12,0,0,1,3,1.13A6,6,0,0,0,11.94,6c.72.09,1.75-.12,3.12-1.39l1.16,0C15.78,5.48,14.31,8,12.33,8A8.83,8.83,0,0,1,9.11,7c-1-.47-1.23-.71-1.78-.77C6.62,6.19,5.58,6.45,4.17,8.06Z"/></svg>