<svg xmlns="http://www.w3.org/2000/svg" viewBox="0 0 18 35"><defs><style>.a{fill:#231f20;}</style></defs><path class="a" d="M8.61,28.45a7,7,0,0,1-4.71-1.8A5.88,5.88,0,0,1,2,22.31V9.84H3.59V22.31a4.86,4.86,0,0,0,5,4.67,4.85,4.85,0,0,0,5-4.67V9.86h1.64l-.18,13.67a8,8,0,0,0,.3,1.22,8.79,8.79,0,0,0,2.15,3.49l-1.81,0a2,2,0,0,0-.16-1,2.51,2.51,0,0,0-1.4-1.09H14.1c-.12,0-.2.17-.22.2A7.46,7.46,0,0,1,8.61,28.45Z"/><ellipse class="a" cx="5.87" cy="5.61" rx="1.77" ry="1.82"/><ellipse class="a" cx="12.29" cy="5.61" rx="1.77" ry="1.82"/></svg>