<svg xmlns="http://www.w3.org/2000/svg" viewBox="0 0 18 35"><defs><style>.a{fill:#231f20;}</style></defs><path class="a" d="M6.61,27.5c-1.2-.59-1.85-1.47-2.26-1.23-.25.16-.24.66-.19,1,0,2.59,0,5.18,0,7.77L2.3,35,2.21,2.94h2v7.38c.35,0,.88-.08,1.53-.17,2.26-.31,2.65-.67,3.94-.7a7.26,7.26,0,0,1,3.08.61,7,7,0,0,1,2.41,1.86c2.3,2.65,2.63,7,1.64,10.5-.37,1.32-1,3.54-3.07,4.75a7,7,0,0,1-3,.76A7.27,7.27,0,0,1,6.61,27.5Zm-2.4-4.6c.83.82,3.33,3.08,6.44,3a4.06,4.06,0,0,0,2.08-.5c1.37-.8,1.85-2.46,2.16-3.57.27-.93,1.45-5.74-1.19-8.59A5,5,0,0,0,11.87,12a5.46,5.46,0,0,0-3.66,0,7,7,0,0,0-4,3.51Z"/></svg>