<svg xmlns="http://www.w3.org/2000/svg" viewBox="0 0 18 35"><defs><style>.a{fill:#231f20;}</style></defs><path class="a" d="M14.87,9.83c-.37,1.5-.77,3-1.19,4.56-.95,3.46-1.67,6.32-2.26,8.69-1.18.23-3.33.44-4.85-.82-1-.81-1.28-1.89-1.92-4.88-.44-2-1-4.58-1.47-7.55H1.87a75.67,75.67,0,0,0,.83,7.65,17.83,17.83,0,0,0,1.35,5,7.75,7.75,0,0,0,2.78,3.74,6.33,6.33,0,0,0,3.56.94c-1,3.93-1.71,5.61-3.2,6.08-1,.3-2.61.18-5.22-2.1A2.77,2.77,0,0,0,2.16,33a2.72,2.72,0,0,0,1.17,1.23,7.08,7.08,0,0,0,2.82.8,8,8,0,0,0,2.35-.26c4.34-1.3,6.46-15.46,7.12-19.89.19-1.28.32-2.55.32-2.55.09-.83.16-1.65.21-2.45Z"/><ellipse class="a" cx="6.19" cy="5.61" rx="1.77" ry="1.82"/><ellipse class="a" cx="11.86" cy="5.61" rx="1.77" ry="1.82"/></svg>