<svg xmlns="http://www.w3.org/2000/svg" viewBox="0 0 18 35"><defs><style>.a{fill:#231f20;}</style></defs><path class="a" d="M5,28.21C2.54,28.21.59,24,.59,18.71s2-9.5,4.44-9.5,4.45,4.17,4.45,9.5S7.53,28.21,5,28.21ZM5,10.64c-1.84,0-3.39,3.69-3.39,8.07S3.19,26.78,5,26.78s3.4-3.69,3.4-8.07S6.87,10.64,5,10.64Z"/><path class="a" d="M13.31,28.24c-2.06.2-3.4-2.33-3.68-2.84a14.85,14.85,0,0,1-1.3-7.21c.05-1.4.18-4.89,1.88-7,1.51-1.87,3.89-2.18,5.58.07,1.91,2.54,1.71,6.62,1.68,7.08l0,.9L9.1,19.07l.2-1.94,7,.12a8.2,8.2,0,0,0-1.25-4.41,2.44,2.44,0,0,0-4.14,0C9.66,14.37,9.56,17,9.52,18.31a11.72,11.72,0,0,0,1,5.75c.18.33,1.3,2.43,3,2.18a3.55,3.55,0,0,0,2.18-1.9A7.82,7.82,0,0,0,16.42,22l.46,0a8.34,8.34,0,0,1-.17,2.61C16.15,27.05,14.51,28.13,13.31,28.24Z"/></svg>