<svg xmlns="http://www.w3.org/2000/svg" viewBox="0 0 18 35"><defs><style>.a{fill:#231f20;}</style></defs><path class="a" d="M8.05,13.1H7.62C7,7.74,6.64,5.74,6.4,5.27a2.45,2.45,0,0,1-.21-.52,3,3,0,0,1-.07-1.33c.24-.91,2.43-.92,2.8,0a2.79,2.79,0,0,1,.06,1,2.91,2.91,0,0,1-.24.89C8.53,5.76,8.29,7.66,8.05,13.1Z"/><path class="a" d="M11.86,13.1h-.44c-.6-5.36-1-7.36-1.21-7.83A2,2,0,0,1,10,4.75a3,3,0,0,1-.08-1.33c.25-.91,2.44-.92,2.81,0a3.06,3.06,0,0,1,.06,1,2.91,2.91,0,0,1-.24.89C12.34,5.76,12.09,7.66,11.86,13.1Z"/></svg>