<svg xmlns="http://www.w3.org/2000/svg" viewBox="0 0 18 35"><defs><style>.a{fill:#231f20;}</style></defs><path class="a" d="M8.87,28.89a7.59,7.59,0,0,1-4.43-1.37,7.86,7.86,0,0,1-3-5.39c-.05-.64-.1-1.3-.14-2,0-.4-.05-.78-.07-1.17h.65A9.62,9.62,0,0,0,2,20.26,8.81,8.81,0,0,0,2.91,23,7.53,7.53,0,0,0,5.7,26a8.17,8.17,0,0,0,6.73.39,4.33,4.33,0,0,0,2.72-1.69c.85-1.44.26-3.42-.63-4.61-1.19-1.58-2.7-1.44-5.16-2.41-.81-.32-7.26-2.94-7.91-7.57a7.24,7.24,0,0,1,2-5.57c2.9-3,8.21-3,10.68-.75a9.69,9.69,0,0,1,2,2.86,11.08,11.08,0,0,1,1,3.25l-1.29,0a10.81,10.81,0,0,0-1.14-2.39,8.87,8.87,0,0,0-1.72-2.1,6.4,6.4,0,0,0-8,.54A5.11,5.11,0,0,0,3.4,9.65c.27,3.07,4.06,4.91,5.86,5.77,3.53,1.71,4.7.81,6.34,2.42,2,1.94,2.72,5.63,1.21,8a6.47,6.47,0,0,1-3.9,2.51A15.71,15.71,0,0,1,8.87,28.89Z"/><path class="a" d="M6-.21l3.53,1.3,2.81-1.3,3.06.08L9.58,3.31l-7-3.44Z"/></svg>