<svg xmlns="http://www.w3.org/2000/svg" viewBox="0 0 18 35"><defs><style>.a{fill:#231f20;}</style></defs><rect class="a" x="7.87" y="0.62" width="2" height="30.97" transform="matrix(1, -0.01, 0.01, 1, -0.13, 0.07)"/><path class="a" d="M2.19,25.34a7.73,7.73,0,0,1-.32-4.13h.86a5.71,5.71,0,0,0,1.75,4.52C6,27,12.71,28.44,14.23,22.54a4,4,0,0,0-1-3.14c-.57-.65-1-.69-3.89-1.81a23.62,23.62,0,0,1-3.47-1.5,8.3,8.3,0,0,1-2.82-2.41A7,7,0,0,1,2,11.29,7.25,7.25,0,0,1,2.14,8a6.71,6.71,0,0,1,2.34-4c2.33-1.8,6.07-1.85,8.09,0a5.93,5.93,0,0,1,1.59,2.71,5.37,5.37,0,0,1,0,2.19L13.61,9a5.87,5.87,0,0,0-.38-1.26,4.93,4.93,0,0,0-.55-1,4.91,4.91,0,0,0-1.32-1.12c-1-.55-3.72-1.51-5.65,0A4.68,4.68,0,0,0,4.09,8.46,5.52,5.52,0,0,0,4,10.78a5,5,0,0,0,.86,1.9A5.3,5.3,0,0,0,7,14.42l3.1,1.32c3.59,1.52,4.06,1.7,4.63,2.34a6.07,6.07,0,0,1,1.46,4.7,6.71,6.71,0,0,1-1.24,3l-.12.19A8.1,8.1,0,0,1,6.61,28.8,7.8,7.8,0,0,1,2.19,25.34Z"/></svg>