<svg xmlns="http://www.w3.org/2000/svg" viewBox="0 0 18 35"><defs><style>.a{fill:#231f20;}</style></defs><path class="a" d="M8.1,29.5a8.47,8.47,0,0,1-1.19-.09,7.12,7.12,0,0,1-3.07-1.35,7.18,7.18,0,0,1-2.29-4.79c-.39-3.88,2.22-6.81,3-7.71A12.1,12.1,0,0,1,5.76,14.4L2.92,10.23a6.3,6.3,0,0,1-.29-4A5.34,5.34,0,0,1,3.7,4.14,5,5,0,0,1,5.08,3C5.67,2.6,8.77.89,11.6,2.64a5.63,5.63,0,0,1,2.14,2.49,6.28,6.28,0,0,1,.63,3.33,5.33,5.33,0,0,1-1.82,3.48c-1.25,1-2.29,1.74-4.15,3.06l4.27,7.11a22.09,22.09,0,0,0,.77-3,21.3,21.3,0,0,0,.36-3.46L15,15.5c-.07,1.28-.18,2.64-.35,4.06-.19,1.66-.45,3.22-.73,4.65A11.63,11.63,0,0,0,16.54,28l.47.41-.18.73a10.27,10.27,0,0,1-1.18-.77,11.37,11.37,0,0,1-2.44-2.54,5.52,5.52,0,0,1-.4,1,5.05,5.05,0,0,1-1.41,1.72A5.26,5.26,0,0,1,8.1,29.5ZM7.08,16a4.67,4.67,0,0,0-.73.47c-1.37,1-2.91,2.4-2.91,6.24a4.84,4.84,0,0,0,2,4,4.14,4.14,0,0,0,1.77.72c2.12.29,3.46-.34,4.08-1.95.15-.39.35-1,.58-1.76ZM4.68,9.37q1.23,2,2.48,4.08c.37-.18.91-.46,1.54-.84a8.9,8.9,0,0,0,2.65-2.06,4.38,4.38,0,0,0,1.09-2.3A4.3,4.3,0,0,0,12,6,3.71,3.71,0,0,0,10.6,4.36c-1.92-1.19-4.27.16-4.53.32a3.41,3.41,0,0,0-.89.75A3.58,3.58,0,0,0,4.5,6.79,4.27,4.27,0,0,0,4.68,9.37Z"/></svg>