<svg xmlns="http://www.w3.org/2000/svg" viewBox="0 0 18 35"><defs><style>.a{fill:#231f20;}</style></defs><path class="a" d="M7.85,29.5a8.88,8.88,0,0,1-1.22-.09,7.42,7.42,0,0,1-3.15-1.35,7,7,0,0,1-2.35-4.79c-.4-3.88,2.27-6.81,3.09-7.71A12.82,12.82,0,0,1,5.45,14.4L2.53,10.23a6.15,6.15,0,0,1-.3-4,5.41,5.41,0,0,1,1.1-2.12A5.17,5.17,0,0,1,4.75,3c.61-.36,3.8-2.07,6.7-.32a5.68,5.68,0,0,1,2.2,2.49,6.2,6.2,0,0,1,.65,3.33,5.32,5.32,0,0,1-1.87,3.48c-1.28,1-2.36,1.74-4.27,3.06l4.39,7.11a20.52,20.52,0,0,0,.79-3,20.34,20.34,0,0,0,.37-3.46l1.22-.19c-.06,1.28-.18,2.64-.35,4.06-.2,1.66-.47,3.22-.76,4.65A11.66,11.66,0,0,0,16.53,28l.48.41-.19.73a12.58,12.58,0,0,1-1.21-.77A11.66,11.66,0,0,1,13.1,25.8a5.52,5.52,0,0,1-.4,1,5.33,5.33,0,0,1-1.45,1.72A5.54,5.54,0,0,1,7.85,29.5ZM6.81,16a5.23,5.23,0,0,0-.76.47c-1.4,1-3,2.4-3,6.24a4.82,4.82,0,0,0,2,4,4.37,4.37,0,0,0,1.82.72c2.19.29,3.56-.34,4.2-1.95.15-.39.36-1,.6-1.76ZM4.34,9.37l2.55,4.08c.38-.18.93-.46,1.58-.84a9.15,9.15,0,0,0,2.72-2.06,4.32,4.32,0,0,0,1.12-2.3A4.18,4.18,0,0,0,11.83,6a3.75,3.75,0,0,0-1.41-1.59c-2-1.19-4.39.16-4.65.32a3.57,3.57,0,0,0-.92.75,3.49,3.49,0,0,0-.69,1.36A4.12,4.12,0,0,0,4.34,9.37Z"/></svg>