<svg xmlns="http://www.w3.org/2000/svg" viewBox="0 0 18 35"><defs><style>.a{fill:#231f20;}</style></defs><path class="a" d="M17,25.55c-4,0-8,.06-12.06.1a5.8,5.8,0,0,1,1.72-3.21c1.16-1.11,8.8-9.38,9.43-10.56h0v0s0-.08,0-.1l0,0V9.88L1.48,10v2l11.18,0a3.39,3.39,0,0,1-.49,1.31c-.28.42-1.28,1.38-1,1.09C9.54,16.07,1.45,25,1,25.69H1v.13a0,0,0,0,0,0,0v1.84h.91q7.59-.09,15.15-.13Z"/><path class="a" d="M11.36,14l-.23.26C11.38,14,11.47,13.92,11.36,14Z"/><path class="a" d="M6.21,2.94l3.52,1.3,2.81-1.3L15.61,3,9.75,6.46,2.77,3Z"/></svg>