<svg xmlns="http://www.w3.org/2000/svg" viewBox="0 0 18 35"><defs><style>.cls-1{fill:#231f20;}</style></defs><g id="Artwork_glyph" data-name="Artwork glyph"><path class="cls-1" d="M17.13,27.69l-13.65,0a1.39,1.39,0,0,1-.74-.55,1.45,1.45,0,0,1,.13-1.61c1.28-1.32,9.67-10.07,11.61-13.68A4.82,4.82,0,0,0,15,10.18a5.76,5.76,0,0,0-2.46-5.47c-3.11-2-6.78.55-7,.73a5.89,5.89,0,0,0-1.74,2,6.07,6.07,0,0,0-.74,2.76l-.49,0c0-.8,0-1.67,0-2.6h0A6.67,6.67,0,0,1,4,4.67C6.11,2.22,11.75.89,15.08,4c2.76,2.6,1.94,6.6,1.87,7.45-.39.69-.8,1.39-1.24,2.08a48,48,0,0,1-11,12.11l12.39,0Z"/></g></svg>