<svg xmlns="http://www.w3.org/2000/svg" viewBox="0 0 18 35"><defs><style>.cls-1{fill:#231f20;}</style></defs><g id="Artwork_glyph" data-name="Artwork glyph"><path class="cls-1" d="M9.25,28.18h0a6.52,6.52,0,0,1-4.33-1.43A5.75,5.75,0,0,1,3.13,24a5.59,5.59,0,0,1-.19-2.22l.64,0a6.57,6.57,0,0,0,.84,2.06,4.78,4.78,0,0,0,1.69,1.82c1.83,1.18,4.89,1.73,7.82-2a5.51,5.51,0,0,0,.86-2.86A4.86,4.86,0,0,0,13.6,17.1c-.76-.77-1.65-1-3.28-1.28A14.86,14.86,0,0,0,7,15.53V14a5.38,5.38,0,0,0,2-.38,5.65,5.65,0,0,0,1.84-1.2,5.32,5.32,0,0,0,1.74-4.31A4.51,4.51,0,0,0,11.3,5.44C9.32,3.5,6,4,4.94,5a4.28,4.28,0,0,0-.78,1.06,4.58,4.58,0,0,0-.35,1.13,7.78,7.78,0,0,0-.18,1.34L3,8.62a5.5,5.5,0,0,1-.07-2.38A5.72,5.72,0,0,1,4.1,3.79c1.78-2,6.06-2.09,8.54.16a6.36,6.36,0,0,1,1.94,4,6.82,6.82,0,0,1-2.7,5.64,8.55,8.55,0,0,1-.89.59l.34.05a6.74,6.74,0,0,1,3.58,1.36,6.27,6.27,0,0,1,1.88,5.24,7.54,7.54,0,0,1-1.17,3.86A7.63,7.63,0,0,1,9.25,28.18Z"/></g></svg>