<svg xmlns="http://www.w3.org/2000/svg" viewBox="0 0 18 35"><defs><style>.cls-1{fill:#231f20;}</style></defs><g id="Artwork_glyph" data-name="Artwork glyph"><path class="cls-1" d="M13.55,28h-2V22.28l-8.86-.2,0-1.19a5.35,5.35,0,0,1,.24-.72c.83-2.33,1.62-4.26,2.25-5.7A32.41,32.41,0,0,1,7.39,9.84c.63-1,1-1.38,2.25-3.24,1.07-1.53,1.91-2.81,2.46-3.66h1.45V20.29l3.52,0v2l-3.51,0ZM5.12,20.25l6.43,0q.18-6.81.35-13.62c-.6.8-1.42,1.94-2.32,3.36a35.37,35.37,0,0,0-2.71,4.83A28,28,0,0,0,5.12,20.25Z"/></g></svg>