<svg xmlns="http://www.w3.org/2000/svg" viewBox="0 0 18 35"><defs><style>.a{fill:#231f20;}</style></defs><path class="a" d="M9.3,28.64c-.59,0-3.46,0-5.26-1.95A9.14,9.14,0,0,1,2.33,23c-.08-.31-.14-.61-.14-.61s-.08-.41-.13-.8-.08-.9-.08-.9h.28a8,8,0,0,0,.18,1,8.42,8.42,0,0,0,.41,1.15A7.38,7.38,0,0,0,5,25.55a7.68,7.68,0,0,0,4.58,1.08h0a5.68,5.68,0,0,0,3.74-1.94,6.73,6.73,0,0,0,1.59-5.34A5.55,5.55,0,0,0,13,15.91a5.89,5.89,0,0,0-3.74-1.14,8.79,8.79,0,0,0-3.37.67,11.55,11.55,0,0,0-2.41,1.22l-.72-.56s.63-6.77,1.31-12l.14-.84H15.9v2h-10c-.45,2.7-.84,5.37-1.18,8a7.41,7.41,0,0,0-.07,1.36A16.17,16.17,0,0,1,9.14,13a7.23,7.23,0,0,1,5.08,1.36A7.18,7.18,0,0,1,16.89,19a8.7,8.7,0,0,1-2.09,7,7.73,7.73,0,0,1-5,2.58Z"/></svg>