<svg xmlns="http://www.w3.org/2000/svg" viewBox="0 0 18 35"><defs><style>.cls-1{fill:#231f20;}</style></defs><g id="Artwork_glyph" data-name="Artwork glyph"><path class="cls-1" d="M9.61,28.8A7.88,7.88,0,0,1,6.3,28a6.39,6.39,0,0,1-2.22-1.48,6.7,6.7,0,0,1-1.52-2.88,17,17,0,0,1-.62-4.58c-.1-2.8-.15-4.21-.08-5.88.12-2.7.19-4.33.9-6A7.79,7.79,0,0,1,5.05,4a7,7,0,0,1,5.81-1.46A6,6,0,0,1,14,4.47,5.36,5.36,0,0,1,15,6.6a7.89,7.89,0,0,1,.14,1.19c0,.34,0,.63,0,.85l-.65,0a4,4,0,0,0-.19-.9,5.08,5.08,0,0,0-3.86-3.28A5.48,5.48,0,0,0,6.3,5.54,5.88,5.88,0,0,0,4.6,8c-.54,1.24-.62,2.51-.74,5.26,0,.22,0,.44,0,.66a10.13,10.13,0,0,1,6.7-1.34,6.91,6.91,0,0,1,3.65,1.48,6.76,6.76,0,0,1,1.37,1.63,9.39,9.39,0,0,1,1,7.57h0A8.87,8.87,0,0,1,12.78,28a6.91,6.91,0,0,1-2.21.7A6.48,6.48,0,0,1,9.61,28.8ZM3.85,16.45c0,.72,0,1.55.09,2.56a14.88,14.88,0,0,0,.53,4.07,4.73,4.73,0,0,0,1.06,2.09,4.72,4.72,0,0,0,1.59,1,5.64,5.64,0,0,0,3.17.55,4.93,4.93,0,0,0,1.53-.47,6.85,6.85,0,0,0,2.84-3.61,7.74,7.74,0,0,0-.8-5.9,4.86,4.86,0,0,0-.95-1.15,5.2,5.2,0,0,0-2.67-1,8.14,8.14,0,0,0-5.75,1.34A6.42,6.42,0,0,0,3.85,16.45Z"/></g></svg>