<svg xmlns="http://www.w3.org/2000/svg" viewBox="0 0 18 35"><defs><style>.cls-1{fill:#231f20;}</style></defs><g id="Artwork_glyph" data-name="Artwork glyph"><path class="cls-1" d="M8.75,14.43A6.34,6.34,0,0,1,2.22,8.14,6.35,6.35,0,0,1,8.75,1.85a6.35,6.35,0,0,1,6.53,6.29A6.34,6.34,0,0,1,8.75,14.43ZM8.69,3.26a4.9,4.9,0,1,0,5,5.08A4.94,4.94,0,0,0,8.69,3.26Z"/><path class="cls-1" d="M9.13,28.66a7.45,7.45,0,1,1,0-14.88,7.45,7.45,0,1,1,0,14.88Zm.17-13.5a6,6,0,0,0-.15,12.07A6,6,0,0,0,9.3,15.16Z"/></g></svg>