<svg xmlns="http://www.w3.org/2000/svg" viewBox="0 0 18 35"><defs><style>.cls-1{fill:#231f20;}</style></defs><g id="Artwork_glyph" data-name="Artwork glyph"><path class="cls-1" d="M8.77,2.21A7.88,7.88,0,0,1,12.08,3,6.39,6.39,0,0,1,14.3,4.47a6.74,6.74,0,0,1,1.52,2.89,16.9,16.9,0,0,1,.62,4.57c.1,2.8.15,4.21.08,5.89-.12,2.69-.19,4.32-.9,6A7.88,7.88,0,0,1,13.33,27a7,7,0,0,1-5.81,1.46,5.9,5.9,0,0,1-3.11-1.95,5.37,5.37,0,0,1-1.06-2.12,6.86,6.86,0,0,1-.14-1.2c0-.34,0-.63,0-.85l.64,0a4.86,4.86,0,0,0,.2.9A5.11,5.11,0,0,0,8,26.54a5.51,5.51,0,0,0,4.13-1.07A5.91,5.91,0,0,0,13.78,23c.54-1.25.62-2.52.74-5.26,0-.23,0-.45,0-.67a10.07,10.07,0,0,1-6.7,1.34,6.91,6.91,0,0,1-3.65-1.48,6.37,6.37,0,0,1-1.37-1.63,9.39,9.39,0,0,1-1-7.57h0A9,9,0,0,1,5.59,3a7.31,7.31,0,0,1,2.22-.7A6.39,6.39,0,0,1,8.77,2.21Zm5.76,12.35c0-.72,0-1.55-.09-2.56a14.55,14.55,0,0,0-.54-4.07,4.81,4.81,0,0,0-1.05-2.09,4.72,4.72,0,0,0-1.59-1,5.64,5.64,0,0,0-3.17-.55,4.93,4.93,0,0,0-1.53.47A6.89,6.89,0,0,0,3.72,8.34a7.71,7.71,0,0,0,.8,5.91,4.79,4.79,0,0,0,1,1.14,5.11,5.11,0,0,0,2.67,1,8.12,8.12,0,0,0,5.74-1.34A5.56,5.56,0,0,0,14.53,14.56Z"/></g></svg>