<svg xmlns="http://www.w3.org/2000/svg" viewBox="0 0 18 35"><defs><style>.cls-1{fill:#231f20;}</style></defs><g id="Artwork_glyph" data-name="Artwork glyph"><ellipse class="cls-1" cx="9" cy="11.65" rx="1.77" ry="1.82" transform="translate(-1.47 1.31) rotate(-7.68)"/><ellipse class="cls-1" cx="8.98" cy="26.53" rx="1.77" ry="1.82" transform="matrix(0.99, -0.13, 0.13, 0.99, -3.46, 1.44)"/><path class="cls-1" d="M6,33v-.78a3.06,3.06,0,0,0,1.21-.34c1.15-.59,1.54-1,1.66-2a19.36,19.36,0,0,0,0-2.53L10.69,27c-.11,1.16.05,2.59-.34,3.46A3.75,3.75,0,0,1,7.88,32.7,4.5,4.5,0,0,1,6,33Z"/></g></svg>