<svg xmlns="http://www.w3.org/2000/svg" viewBox="0 0 18 35"><defs><style>.cls-1{fill:#231f20;}.cls-2{fill:#fff;}</style></defs><g id="Artwork_glyph" data-name="Artwork glyph"><ellipse class="cls-1" cx="9" cy="26.18" rx="1.77" ry="1.82" transform="translate(-3.42 1.44) rotate(-7.68)"/><path class="cls-2" d="M2.84,9.56s1-4.6,3-5.61,6.13-1,7.35,0a8.46,8.46,0,0,1,2.32,5.89c0,2.35-3.74,5.47-5,6.56s-1.45,6-1.45,6"/><path class="cls-1" d="M9.81,22.41l-1.1,0c-.16-1.43-.24-2.55-.26-3.17a3.05,3.05,0,0,1,.1-.9,2.86,2.86,0,0,1,.32-.75,19.54,19.54,0,0,1,2.24-2.75,13.39,13.39,0,0,0,2.22-2.62,6.78,6.78,0,0,0,1.15-2.35,5.25,5.25,0,0,0-2-5.12,5.43,5.43,0,0,0-6-.16A5.69,5.69,0,0,0,3.82,9.77H2.26a7.9,7.9,0,0,1,3.09-6.7,7.24,7.24,0,0,1,8.45.13,7.08,7.08,0,0,1,2.68,6.65,7.41,7.41,0,0,1-3.37,5.06,10.72,10.72,0,0,0-2.4,2.84A7.1,7.1,0,0,0,10,19.21,6.72,6.72,0,0,0,9.81,22.41Z"/></g></svg>