<svg xmlns="http://www.w3.org/2000/svg" viewBox="0 0 18 35"><defs><style>.a{fill:#231f20;}</style></defs><ellipse class="a" cx="9" cy="26.18" rx="1.77" ry="1.82" transform="translate(-3.42 1.44) rotate(-7.68)"/><path class="a" d="M8.14,23.35c-.87-6.23,1.07-8.27,3.13-10.43a16,16,0,0,0,2.44-3.06c.43-2.1-.08-3.73-1.46-4.74a5.4,5.4,0,0,0-5.67-.2A4.92,4.92,0,0,0,5.33,6,7.28,7.28,0,0,0,3.6,10.15H2.43A6.72,6.72,0,0,1,5.57,3.2a7.36,7.36,0,0,1,7.86.3c2.05,1.5,2.85,4,2.2,6.94l-.11.26a16.81,16.81,0,0,1-2.81,3.6c-1.93,2-3.33,3.5-2.58,8.77Z"/></svg>