<svg xmlns="http://www.w3.org/2000/svg" viewBox="0 0 18 35"><defs><style>.cls-1{fill:#231f20;}</style></defs><g id="Artwork_glyph" data-name="Artwork glyph"><path class="cls-1" d="M11.13,26.55a5.12,5.12,0,0,1-1.7-.43l-.56-.23-.43-.21a4.4,4.4,0,0,1-1.48-1A1.58,1.58,0,0,1,6.69,24l0-14.68A2.84,2.84,0,0,1,6.8,9,7.18,7.18,0,0,1,9.5,7.14,4.52,4.52,0,0,1,10.27,7a4.09,4.09,0,0,1,1.25.09,4.67,4.67,0,0,1,.45.15v-.7l2,0c0,.74,0,5,0,5.16,0,3.72-.06,8.21-.09,9.9.08,2.58-.74,4.46-2.14,4.88A2.08,2.08,0,0,1,11.13,26.55ZM8.6,23.12a1.55,1.55,0,0,0,.4,1,1.7,1.7,0,0,0,1,.5,2.07,2.07,0,0,0,1.15,0c.88-.42.69-2.48.7-2.94,0-1.88.08-7,.09-10.89-.22-1.05-.64-1.6-.82-1.65s-2-.16-2.63,1.28C8.43,10.53,8.57,18.86,8.6,23.12Z"/><path class="cls-1" d="M11.86,31.29a18.47,18.47,0,0,1-5.84-2A31.87,31.87,0,0,1,3,27a2.48,2.48,0,0,1-.45-.47A1.35,1.35,0,0,1,2.27,26a1,1,0,0,1,0-.27c0-6.16,0-17.79,0-18.48.13-.49,0-.54.4-.88a7.81,7.81,0,0,1,1-.71c.18-.14,4.1-3,5.62-3.35.47-.1,4.66-.94,6.64,1.53A4.22,4.22,0,0,1,16.76,6c.29,2.2,0,13.71-.18,18.56V25l-.17.25c-.33.46-1.3,1.86-2.61,1.59-1.64-.34-1.95-3.06-1.92-5.28l2,0a10.45,10.45,0,0,0,.37,3.13,3.92,3.92,0,0,0,.35-.39c.31-9.93.38-16.69.19-18.11a2.29,2.29,0,0,0-.46-1.1c-1.25-1.56-4.62-.83-4.66-.83C8.6,4.52,4.64,6.77,4.24,8l-.11,17.1a.71.71,0,0,0,0,.3A1,1,0,0,0,4.5,26,13.45,13.45,0,0,0,7,27.79c3.26,1.37,4.89,2.05,6.65,1.38a5.56,5.56,0,0,0,2.76-2.49l.85,0c-.89,2.29-2.07,3.89-3,4.22A10.29,10.29,0,0,1,11.86,31.29Z"/><path class="cls-1" d="M2.74,26.6l0-.75"/><path class="cls-1" d="M8.13,10.56l.3,0"/></g></svg>