<svg xmlns="http://www.w3.org/2000/svg" viewBox="0 0 18 35"><defs><style>.a{fill:#231f20;}</style></defs><path class="a" d="M10.25,26.55a4.28,4.28,0,0,1-1.54-.43l-.5-.23-.39-.21a3.9,3.9,0,0,1-1.33-1A1.63,1.63,0,0,1,6.25,24q0-7.34,0-14.68A2.84,2.84,0,0,1,6.35,9,6.52,6.52,0,0,1,8.77,7.14,3.83,3.83,0,0,1,9.47,7a3.31,3.31,0,0,1,1.12.09,4.28,4.28,0,0,1,.41.15c0-.28,0-.51,0-.7l1.8,0c0,.74,0,5,0,5.16,0,3.72,0,8.21-.08,9.9.07,2.58-.66,4.46-1.92,4.88A1.79,1.79,0,0,1,10.25,26.55ZM8,23.12a1.7,1.7,0,0,0,.36,1,1.49,1.49,0,0,0,.92.5,1.67,1.67,0,0,0,1,0c.8-.42.63-2.48.64-2.94,0-1.88.07-7,.08-10.89-.2-1.05-.58-1.6-.74-1.65a2.3,2.3,0,0,0-2.37,1.28C7.82,10.53,7.94,18.86,8,23.12Z"/><path class="a" d="M10.9,31.29a15.44,15.44,0,0,1-5.25-2A28.58,28.58,0,0,1,2.91,27a2.81,2.81,0,0,1-.4-.47A1.33,1.33,0,0,1,2.27,26a1,1,0,0,1,0-.27c0-6.16,0-17.79,0-18.48.11-.49,0-.54.36-.88a7,7,0,0,1,.88-.71c.17-.14,3.69-3,5.06-3.35.42-.1,4.2-.94,6,1.53A4.45,4.45,0,0,1,15.31,6c.26,2.2,0,13.71-.16,18.56V25l-.16.25c-.29.46-1.17,1.86-2.34,1.59-1.48-.34-1.76-3.06-1.73-5.28l1.8,0A11.41,11.41,0,0,0,13,24.71a4.5,4.5,0,0,0,.32-.39c.27-9.93.34-16.69.17-18.11a2.46,2.46,0,0,0-.41-1.1C12,3.55,9,4.28,8.92,4.28,8,4.52,4.4,6.77,4,8l-.1,17.1a.92.92,0,0,0,0,.3,1,1,0,0,0,.35.57,12.33,12.33,0,0,0,2.26,1.81c2.94,1.37,4.41,2.05,6,1.38A5.21,5.21,0,0,0,15,26.68l.76,0c-.8,2.29-1.85,3.89-2.66,4.22A8.28,8.28,0,0,1,10.9,31.29Z"/><path class="a" d="M2.74,26.6l0-.75"/><path class="a" d="M8.13,10.56l.3,0"/></svg>