<svg xmlns="http://www.w3.org/2000/svg" viewBox="0 0 18 35"><defs><style>.cls-1{font-size:35px;fill:#bcbcbc;font-family:ArialMT, Arial;letter-spacing:-0.06em;}.cls-2{fill:#231f20;}.cls-2,.cls-3{stroke:#231f20;stroke-miterlimit:10;stroke-width:0.25px;}.cls-3{fill:#fff;}</style></defs><g id="Example_glyph" data-name="Example glyph"><g id="Line_1-2" data-name="Line 1"><text class="cls-1" transform="translate(-3.33 27.99)">A</text></g></g><g id="Artwork_glyph" data-name="Artwork glyph"><path class="cls-2" d="M2,28S3.88,11.33,4,9.84c.25-2.06,3.67-6.73,5-6.73s4.81,5.31,5,6.73C14.2,11.57,16,28,16,28h-.94L14,18.76c-.67,0-5,.07-9.88.13q-.3,2.66-.63,5.34C3.33,25.49,3.18,26.75,3,28Z"/><path class="cls-3" d="M4.19,17.84c4.28.05,10,.1,9.81,0-.18-1.28-.36-2.56-.55-3.85l-.6-4.15C12.53,8.27,10.09,4.78,9,5.16,7.77,5,5.41,8.31,5.15,9.84Z"/></g></svg>