<svg xmlns="http://www.w3.org/2000/svg" viewBox="0 0 18 35"><defs><style>.a{fill:#231f20;}</style></defs><rect class="a" x="2" y="2.94" width="2" height="25.06"/><path class="a" d="M9.87,15.36l-1,0h-6v-2c4.23,0,6.09,0,7,0h.05a5.06,5.06,0,0,0,3.39-1.6,4.7,4.7,0,0,0,.86-3.81A4.12,4.12,0,0,0,12.42,5.4,2.79,2.79,0,0,0,11,5.05C8.83,5,6.36,4.94,3.82,5l0-2c2.57,0,5.08,0,7.26.07a4.79,4.79,0,0,1,2.37.62,6.13,6.13,0,0,1,2.63,3.85A6.75,6.75,0,0,1,14.8,13,6.21,6.21,0,0,1,11,15.15v0Z"/><path class="a" d="M7.55,28.06c-1.36,0-2.73,0-4.09,0l0-2c1.93,0,3.88,0,5.78,0,2.36,0,2.84-.08,3.47-.39a5.36,5.36,0,0,0,2.48-3,6.29,6.29,0,0,0,.33-3A4.49,4.49,0,0,0,15,17.85a4.33,4.33,0,0,0-1.33-1.37,6.71,6.71,0,0,0-3.85-1.15v-2a8.64,8.64,0,0,1,5,1.52,6.17,6.17,0,0,1,1.89,2,6.39,6.39,0,0,1,.81,2.61,8.1,8.1,0,0,1-.44,3.93,7.3,7.3,0,0,1-3.45,4.07c-1.09.55-2,.59-4.35.61Z"/></svg>