<svg xmlns="http://www.w3.org/2000/svg" viewBox="0 0 18 35"><defs><style>.a{fill:#231f20;}</style></defs><rect class="a" x="2.85" y="2.94" width="1.88" height="25.06"/><path class="a" d="M9.54,15.36l-.84,0H3.64v-2c3.54,0,5.1,0,5.83,0h0a4,4,0,0,0,2.83-1.6,5.35,5.35,0,0,0,.73-3.81,4.26,4.26,0,0,0-1.4-2.54,2.06,2.06,0,0,0-1.21-.35C8.67,5,6.59,4.94,4.47,5l0-2c2.15,0,4.26,0,6.09.07a3.53,3.53,0,0,1,2,.62,6.29,6.29,0,0,1,2.2,3.85A7.75,7.75,0,0,1,13.67,13a5.05,5.05,0,0,1-3.19,2.16v0Z"/><path class="a" d="M7.59,28.06c-1.14,0-2.28,0-3.43,0l0-2c1.62,0,3.25,0,4.84,0,2,0,2.39-.08,2.92-.39a5.23,5.23,0,0,0,2.07-3,7.27,7.27,0,0,0,.28-3,5,5,0,0,0-.46-1.84,4.12,4.12,0,0,0-1.11-1.37,5,5,0,0,0-3.23-1.15v-2a6.44,6.44,0,0,1,4.19,1.52,5.78,5.78,0,0,1,1.59,2A7.08,7.08,0,0,1,16,19.44a9.36,9.36,0,0,1-.37,3.93,7.08,7.08,0,0,1-2.89,4.07c-.91.55-1.65.59-3.65.61Z"/></svg>