<svg xmlns="http://www.w3.org/2000/svg" viewBox="0 0 18 35"><defs><style>.cls-1{font-size:35px;fill:#bcbcbc;font-family:ArialMT, Arial;}.cls-2{fill:none;stroke:#231f20;stroke-miterlimit:10;stroke-width:0.25px;}</style></defs><g id="Example_glyph" data-name="Example glyph"><g id="Line_1-2" data-name="Line 1"><text class="cls-1" transform="translate(-2.35 27.99)">B</text></g></g><g id="Artwork_glyph" data-name="Artwork glyph"><path class="cls-2" d="M2.4,2.93V28h8.06a8.21,8.21,0,0,0,6.14-3.35,5.85,5.85,0,0,0,1.06-3.43c-.21-2.93-3.75-5.77-8.82-6.42,4.49.18,7.8-2.9,7.87-5.81.07-3.1-3.55-5.65-6.26-6.05C9.94,2.86,3.47,3,2.4,2.93Z"/><path class="cls-2" d="M3.61,16V26.79h6.68c3.85-.72,6.27-3.35,6.1-5.54-.19-2.35-3.33-4-3.84-4.23a8.82,8.82,0,0,0-3.18-.94Z"/><path class="cls-2" d="M3.64,13.79,3.56,4.08c.95-.07,2.34-.15,4-.14a15.08,15.08,0,0,1,2.56.12,8.25,8.25,0,0,1,4.55,2.63A3.74,3.74,0,0,1,15.56,9a4.33,4.33,0,0,1-1.79,3.14,7.19,7.19,0,0,1-3.72,1.53,15.64,15.64,0,0,1-2.73.17C5.78,13.88,4.51,13.83,3.64,13.79Z"/></g></svg>