<svg xmlns="http://www.w3.org/2000/svg" viewBox="0 0 18 35"><defs><style>.a{fill:#231f20;}</style></defs><path class="a" d="M10.77,28a11,11,0,0,1-5.2-1.36,9.37,9.37,0,0,1-3.21-3C.76,21.18.73,18.76.71,16.19a19.49,19.49,0,0,1,.4-4.2A13.17,13.17,0,0,1,2.57,7.76a8.82,8.82,0,0,1,3-3.38c2.81-1.74,7.56-1.78,9.88.93A5.85,5.85,0,0,1,16.79,9l-1.16,0a5.64,5.64,0,0,0-1.52-2.82,6.11,6.11,0,0,0-5.2-1.45A7.05,7.05,0,0,0,4.46,8,10.43,10.43,0,0,0,2.89,12a16.48,16.48,0,0,0-.39,4.23c.07,2.07.12,4.25,1.55,6.31A7.52,7.52,0,0,0,6.58,25c2.07,1.16,5.44,1.68,7.36,0a4.22,4.22,0,0,0,1.25-2.19h1.29a4.77,4.77,0,0,1-1,3.38A6,6,0,0,1,10.77,28Z"/></svg>