<svg xmlns="http://www.w3.org/2000/svg" viewBox="0 0 18 35"><defs><style>.a{fill:#231f20;}</style></defs><path class="a" d="M11.11,28a8.27,8.27,0,0,1-4.42-1.36A8.71,8.71,0,0,1,4,23.6c-1.36-2.42-1.38-4.84-1.4-7.41A22.4,22.4,0,0,1,2.9,12,14.71,14.71,0,0,1,4.14,7.76,8.55,8.55,0,0,1,6.69,4.38c2.39-1.74,6.42-1.78,8.4.93A6.58,6.58,0,0,1,16.23,9l-1,0A6.05,6.05,0,0,0,14,6.23,4.63,4.63,0,0,0,9.53,4.78,6.24,6.24,0,0,0,5.74,8,11.67,11.67,0,0,0,4.41,12a19.21,19.21,0,0,0-.33,4.23c.06,2.07.1,4.25,1.32,6.31A6.86,6.86,0,0,0,7.55,25c1.76,1.16,4.63,1.68,6.26,0a4.52,4.52,0,0,0,1.06-2.19H16a5.49,5.49,0,0,1-.84,3.38A4.68,4.68,0,0,1,11.11,28Z"/></svg>