<svg xmlns="http://www.w3.org/2000/svg" viewBox="0 0 18 35"><defs><style>.a{fill:#231f20;}</style></defs><path class="a" d="M5.06,28c-.66,0-1.33,0-2-.05l-.8,0L2.19,3,3,2.94a26.12,26.12,0,0,1,2.84-.06c.38,0,.68,0,.82,0A8.52,8.52,0,0,1,13,6c2.64,3.19,2.48,7.69,2.42,9.17v.36C15.27,19.09,15,25.79,12,27.19a16.57,16.57,0,0,1-4.34.75L6.47,28Q5.77,28,5.06,28ZM4,26c.82,0,1.64,0,2.47,0l1.09,0a15,15,0,0,0,3.84-.62c2.05-.93,2.28-7.23,2.37-9.92l0-.36c0-1.27.18-5.12-2-7.69A6.93,6.93,0,0,0,6.62,4.89H5.77c-.54,0-1.28,0-1.89,0Z"/></svg>