<svg xmlns="http://www.w3.org/2000/svg" viewBox="0 0 18 35"><defs><style>.a{fill:#231f20;}</style></defs><path class="a" d="M5.09,28C4.3,28,3.51,28,2.73,28l-.95,0L1.67,3l.9-.09c.89-.09,2.34-.07,3.4-.06.44,0,.8,0,1,0A11.08,11.08,0,0,1,14.54,6c3.15,3.19,3,7.69,2.89,9.17v.36c-.16,3.61-.44,10.31-4.12,11.71a23.1,23.1,0,0,1-5.17.75L6.77,28Q5.93,28,5.09,28ZM3.77,26c1,0,2,0,2.94,0l1.3,0a21,21,0,0,0,4.58-.62c2.45-.93,2.71-7.23,2.83-9.92V15c.06-1.27.23-5.12-2.31-7.69A9,9,0,0,0,7,4.89h-1c-.65,0-1.53,0-2.26,0Z"/></svg>