<svg xmlns="http://www.w3.org/2000/svg" viewBox="0 0 18 35"><defs><style>.a{fill:#231f20;}</style></defs><path class="a" d="M5.59,28C5,28,4.33,28,3.71,28l-.76,0L2.87,3l.72-.09a23.51,23.51,0,0,1,2.7-.06c.35,0,.64,0,.77,0A7.89,7.89,0,0,1,13.11,6c2.51,3.19,2.35,7.69,2.3,9.17v.36c-.12,3.61-.35,10.31-3.27,11.71A15,15,0,0,1,8,27.94L6.93,28C6.48,28,6,28,5.59,28Zm-1-2c.77,0,1.56,0,2.34,0l1,0a13.67,13.67,0,0,0,3.65-.62c1.95-.93,2.16-7.23,2.25-9.92V15c0-1.27.18-5.12-1.84-7.69a6.44,6.44,0,0,0-4.9-2.46H6.27c-.52,0-1.22,0-1.8,0Z"/></svg>