<svg xmlns="http://www.w3.org/2000/svg" viewBox="0 0 18 35"><defs><style>.a{fill:#231f20;}</style></defs><path class="a" d="M10.09,28.28a6.64,6.64,0,0,1-3.92-1.39,8.6,8.6,0,0,1-2.42-3.12c-1.21-2.49-1.23-5-1.25-7.62a26.63,26.63,0,0,1,.31-4.32,16.59,16.59,0,0,1,1.1-4.36A8.86,8.86,0,0,1,6.17,4a5,5,0,0,1,7.45,1,7.51,7.51,0,0,1,1,3.82l-.87,0a6.83,6.83,0,0,0-1.15-2.9A3.74,3.74,0,0,0,8.69,4.41C6.78,4.88,5.75,6.88,5.33,7.7a13.33,13.33,0,0,0-1.19,4.18,23.71,23.71,0,0,0-.29,4.35A14.6,14.6,0,0,0,5,22.72,7,7,0,0,0,6.93,25.2c1.64,1.25,4.27,1.71,5.55-.05.56-.76.71-2.09,1-4.73.2-1.77.07-2.07,0-2.23-.76-1.19-4-.39-4-.39l0-2.37,5.37-.15s.14,3,.11,5.2c-.17,2.8-.28,4.5-1.26,5.89A4.4,4.4,0,0,1,10.09,28.28Z"/></svg>