<svg xmlns="http://www.w3.org/2000/svg" viewBox="0 0 18 35"><defs><style>.a{fill:#231f20;}</style></defs><path class="a" d="M10.77,28.28a10.78,10.78,0,0,1-5.2-1.39,9.53,9.53,0,0,1-3.21-3.12c-1.6-2.49-1.63-5-1.65-7.62a20.55,20.55,0,0,1,.4-4.32A13.8,13.8,0,0,1,2.57,7.47,9.07,9.07,0,0,1,5.57,4c2.81-1.78,7.56-1.82,9.88,1a6.14,6.14,0,0,1,1.34,3.82l-1.16,0a5.89,5.89,0,0,0-1.52-2.9,6,6,0,0,0-5.2-1.49A7.07,7.07,0,0,0,4.46,7.7a10.88,10.88,0,0,0-1.57,4.18,17.35,17.35,0,0,0-.39,4.35c.07,2.13.12,4.37,1.55,6.49A7.57,7.57,0,0,0,6.58,25.2c2.17,1.25,5.66,1.71,7.36-.05.74-.76.93-2.09,1.33-4.73.27-1.77.1-2.07,0-2.23C14.23,17,10,17.8,10,17.8l-.05-2.37L17,15.28s.19,3,.15,5.2c-.23,2.8-.37,4.5-1.66,5.89A6.69,6.69,0,0,1,10.77,28.28Z"/></svg>