<svg xmlns="http://www.w3.org/2000/svg" viewBox="0 0 18 35"><defs><style>.cls-1{font-size:35px;fill:#bcbcbc;font-family:ArialMT, Arial;}.cls-2{fill:none;}.cls-3{fill:#231f20;}.cls-4{fill:#e6e7e8;}</style></defs><g id="Example_glyph" data-name="Example glyph"><g id="Line_1-2" data-name="Line 1"><text class="cls-1" transform="translate(-4.61 27.99)">G</text></g></g><g id="Artwork_glyph" data-name="Artwork glyph"><path class="cls-2" d="M16,17.23C15.55,23.07,12.58,27.56,9,27.56c-3.94,0-7.13-5.37-7.13-12S5,3.56,9,3.56c2.53,0,4.76,2.23,6,5.59"/><path class="cls-3" d="M9,28.56c-4.56,0-8.13-5.71-8.13-13,0-6,3.78-12.75,8.13-13a7.67,7.67,0,0,1,5.53,2.32,17.24,17.24,0,0,1,1.81,2.81A5.66,5.66,0,0,1,16.9,9a4.79,4.79,0,0,1,.17.82h-.75a9.59,9.59,0,0,0-.87-1.61,8,8,0,0,0-5-3.6A5,5,0,0,0,9,4.56c-3,.42-6.13,5.8-6.13,11,0,6,2.81,11,6.13,11,3,0,5.62-4.13,6.06-9.41a1,1,0,1,1,2,.16C16.49,23.83,13.11,28.56,9,28.56Z"/><path class="cls-4" d="M16,17.23l-8.2-.09"/><path class="cls-3" d="M16,18.23h0l-9-.17c0-.31,0-.64,0-1s0-.56,0-.82H8.43l7.62,0a1,1,0,0,1,0,2Z"/></g></svg>