<svg xmlns="http://www.w3.org/2000/svg" viewBox="0 0 18 35"><defs><style>.a{fill:#231f20;}</style></defs><path class="a" d="M9.09,28.69c-.19,0-4.22-.11-5.66-2.93a7.09,7.09,0,0,1-.62-2.25,12,12,0,0,1-.12-3l1,0a9.28,9.28,0,0,0,.41,2.83,5.58,5.58,0,0,0,1.24,2.49c1.8,1.82,4.87.88,5.82.41a2.81,2.81,0,0,0,1.08-.88,3.16,3.16,0,0,0,.48-1.23,14.07,14.07,0,0,0,.38-3.21c0-1,0-2,0-3s0-1.73,0-2.6c0,0,0-.77-.06-6.91,0-2.27,0-4.13,0-5.33H15c0,1.2,0,3.05,0,5.32,0,6.1.06,6.89.06,6.9,0,.89,0,1.78,0,2.68s-.05,1.92,0,2.87a15.83,15.83,0,0,1-.44,3.74,5.08,5.08,0,0,1-.8,2A4.69,4.69,0,0,1,12,28.05,6.09,6.09,0,0,1,9.09,28.69Z"/><rect class="a" x="7.48" y="3.1" width="7.35" height="2"/></svg>