<svg xmlns="http://www.w3.org/2000/svg" viewBox="0 0 18 35"><defs><style>.cls-1{fill:#231f20;}</style></defs><g id="Artwork_glyph" data-name="Artwork glyph"><path class="cls-1" d="M8.78,28.69c-.2,0-4.44-.11-6-2.93a7.13,7.13,0,0,1-.65-2.25,11.1,11.1,0,0,1-.12-3l1,0a9.16,9.16,0,0,0,.44,2.83,5.39,5.39,0,0,0,1.31,2.49c1.89,1.82,5.11.88,6.12.41a3,3,0,0,0,1.13-.88,3,3,0,0,0,.5-1.23A13.27,13.27,0,0,0,13,20.94c0-1,0-2,0-3s0-1.73,0-2.6c0,0,0-.77-.06-6.91,0-2.27,0-4.13,0-5.33h2c0,1.2,0,3.05,0,5.32,0,6.1.06,6.89.06,6.9,0,.89,0,1.78,0,2.68s-.06,1.92,0,2.87a15.3,15.3,0,0,1-.46,3.74,5,5,0,0,1-.85,2,4.91,4.91,0,0,1-1.85,1.47A6.68,6.68,0,0,1,8.78,28.69Z"/><rect class="cls-1" x="7.48" y="3.1" width="7.35" height="2"/></g></svg>