<svg xmlns="http://www.w3.org/2000/svg" viewBox="0 0 18 35"><defs><style>.cls-1{font-size:35px;fill:#bcbcbc;font-family:ArialMT, Arial;}.cls-2{fill:#231f20;}</style></defs><g id="Example_glyph" data-name="Example glyph"><g id="Line_1-2" data-name="Line 1"><text class="cls-1" transform="translate(-2.67 27.99)">K</text></g></g><g id="Artwork_glyph" data-name="Artwork glyph"><rect class="cls-2" x="2.36" y="2.94" width="2" height="25.06"/><path class="cls-2" d="M3.86,15.82,2.52,14.33A43.11,43.11,0,0,0,11.19,9a23.64,23.64,0,0,0,2.62-2.76,12,12,0,0,0,1.4-2.18,10.38,10.38,0,0,0,.48-1.14h1.15c-.14.34-.33.83-.58,1.4A25.44,25.44,0,0,1,14.92,7a23.42,23.42,0,0,1-1.53,2.19C12.1,10.78,8.77,13.44,3.86,15.82Z"/><path class="cls-2" d="M13.11,28A13.27,13.27,0,0,1,12,26.85a12.62,12.62,0,0,1-2-3c-.61-1.22-2.37-3.7-7.24-9.17l1.44-1.4L17.56,28Z"/></g></svg>