<svg xmlns="http://www.w3.org/2000/svg" viewBox="0 0 18 35"><defs><style>.a{fill:#231f20;}</style></defs><rect class="a" x="2.36" y="2.94" width="2" height="25.06"/><path class="a" d="M4.12,15.82,2.94,14.33A37.22,37.22,0,0,0,10.56,9a22.46,22.46,0,0,0,2.3-2.76,12.51,12.51,0,0,0,1.23-2.18c.2-.45.33-.85.43-1.14h1c-.11.34-.28.83-.51,1.4A22.31,22.31,0,0,1,13.83,7a22.14,22.14,0,0,1-1.34,2.19A26.81,26.81,0,0,1,4.12,15.82Z"/><path class="a" d="M12.7,28l-1-1.36c-.72-1-1.92-2.72-2.08-2.95-.77-1.08-2.46-3.43-6.53-9l1.26-1.4L16.16,28Z"/></svg>