<svg xmlns="http://www.w3.org/2000/svg" viewBox="0 0 18 35"><defs><style>.a{fill:#231f20;}</style></defs><rect class="a" x="2.36" y="2.94" width="2" height="25.06"/><path class="a" d="M3.86,15.82,2.52,14.33A43.11,43.11,0,0,0,11.19,9a23.64,23.64,0,0,0,2.62-2.76,12,12,0,0,0,1.4-2.18,10.38,10.38,0,0,0,.48-1.14h1.15c-.14.34-.33.83-.58,1.4A25.44,25.44,0,0,1,14.92,7a23.42,23.42,0,0,1-1.53,2.19C12.1,10.78,8.77,13.44,3.86,15.82Z"/><path class="a" d="M13.62,28l-1.09-1.36L10.16,23.7c-.87-1.08-2.8-3.43-7.43-9l1.44-1.4L17.56,28Z"/></svg>