<svg xmlns="http://www.w3.org/2000/svg" viewBox="0 0 18 35"><defs><style>.a{fill:#231f20;}</style></defs><rect class="a" x="3.36" y="2.9" width="1.73" height="24.98"/><path class="a" d="M9.86,16.43A75.11,75.11,0,0,0,7.14,8.49a18.43,18.43,0,0,0-1-2A15.57,15.57,0,0,0,3.36,2.9H5.09A8.55,8.55,0,0,1,6.84,4.67,12.65,12.65,0,0,1,8.48,8.11c.4,1.11.9,2.63,1.38,4.48A21.43,21.43,0,0,1,11,8.16a18.6,18.6,0,0,1,3-5.22l1.62,0A14.58,14.58,0,0,0,14,4.94a16.67,16.67,0,0,0-1.63,3.37C11.21,11.52,10.27,14.91,9.86,16.43Z"/><polygon class="a" points="14.15 27.97 13.91 2.91 15.64 2.89 15.88 27.95 14.15 27.97"/></svg>