<svg xmlns="http://www.w3.org/2000/svg" viewBox="0 0 18 35"><defs><style>.cls-1{font-size:35px;fill:#bcbcbc;font-family:ArialMT, Arial;}.cls-2{fill:#231f20;}</style></defs><g id="Example_glyph" data-name="Example glyph"><g id="Line_1-2" data-name="Line 1"><text class="cls-1" transform="translate(-5.58 27.99)">M</text></g></g><g id="Artwork_glyph" data-name="Artwork glyph"><rect class="cls-2" x="1.56" y="2.94" width="2" height="24.98"/><path class="cls-2" d="M9.06,16.47A66.66,66.66,0,0,0,5.92,8.53a18.11,18.11,0,0,0-1.11-2A16.23,16.23,0,0,0,1.56,2.94h2a9.15,9.15,0,0,1,2,1.77A12.2,12.2,0,0,1,7.47,8.15a44.79,44.79,0,0,1,1.59,4.48,19.55,19.55,0,0,1,1.36-4.44,18.84,18.84,0,0,1,2.05-3.55A16.54,16.54,0,0,1,13.87,3l1.87-.06A15.29,15.29,0,0,0,13.89,5,15.87,15.87,0,0,0,12,8.35,86.33,86.33,0,0,0,9.06,16.47Z"/><rect class="cls-2" x="13.88" y="2.93" width="2" height="25.06" transform="translate(-0.17 0.17) rotate(-0.64)"/></g></svg>