<svg xmlns="http://www.w3.org/2000/svg" viewBox="0 0 18 35"><defs><style>.cls-1{fill:#231f20;}</style></defs><g id="Artwork_glyph" data-name="Artwork glyph"><rect class="cls-1" x="-10.14" y="14.47" width="25.05" height="2" transform="translate(-13.09 17.81) rotate(-89.83)"/><rect class="cls-1" x="3.01" y="14.46" width="25.07" height="2" transform="translate(0.04 30.96) rotate(-89.83)"/><path class="cls-1" d="M14.51,28a23.13,23.13,0,0,1-1.76-2.46,25.71,25.71,0,0,1-2.54-5.63C9,16.46,7.75,13,6.57,9.59a3.89,3.89,0,0,0-1.39-2A3.61,3.61,0,0,0,3.42,7c0-1.34,0-2.69,0-4A16.08,16.08,0,0,1,6.19,5.39,17.14,17.14,0,0,1,9,9.84a63.33,63.33,0,0,1,3.72,9.87,4.34,4.34,0,0,0,1.8,2.9,3.17,3.17,0,0,0,2,.29Z"/></g></svg>