<svg xmlns="http://www.w3.org/2000/svg" viewBox="0 0 18 35"><defs><style>.a{fill:#231f20;}</style></defs><polygon class="a" points="5 28 3.39 27.99 3.45 2.94 5.07 2.94 5 28"/><polygon class="a" points="15.62 28 14.01 27.99 14.07 2.92 15.69 2.93 15.62 28"/><path class="a" d="M14,28a22.4,22.4,0,0,1-1.42-2.46,28.71,28.71,0,0,1-2.05-5.63c-1-3.44-2-6.86-2.93-10.31a4.16,4.16,0,0,0-1.13-2A2.55,2.55,0,0,0,5.06,7c0-1.34,0-2.69,0-4A14.17,14.17,0,0,1,7.3,5.39,18.28,18.28,0,0,1,9.56,9.84a74.14,74.14,0,0,1,3,9.87A4.56,4.56,0,0,0,14,22.61a2.14,2.14,0,0,0,1.62.29Z"/></svg>