<svg xmlns="http://www.w3.org/2000/svg" viewBox="0 0 18 35"><defs><style>.cls-1{font-size:35px;fill:#bcbcbc;font-family:ArialMT, Arial;}.cls-2{fill:#231f20;}</style></defs><g id="Example_glyph" data-name="Example glyph"><g id="Line_1-2" data-name="Line 1"><text class="cls-1" transform="translate(-3.64 27.99)">R</text></g></g><g id="Artwork_glyph" data-name="Artwork glyph"><path class="cls-2" d="M12.42,28.17A11.82,11.82,0,0,1,11.27,27a13.05,13.05,0,0,1-2-3c-.61-1.22-2.28-3.4-6.76-7.58l2.65-.74L16.87,28.17Z"/><rect class="cls-2" x="1.51" y="3.12" width="2" height="25.05"/><path class="cls-2" d="M10.13,17.44H3v-2h7.16a4.8,4.8,0,0,0,4.8-4.8v-.7a4.81,4.81,0,0,0-4.8-4.81H3v-2h7.16a6.81,6.81,0,0,1,6.8,6.81v.7A6.81,6.81,0,0,1,10.13,17.44Z"/></g></svg>