<svg xmlns="http://www.w3.org/2000/svg" viewBox="0 0 18 35"><defs><style>.cls-1{fill:#231f20;}</style></defs><g id="Artwork_glyph" data-name="Artwork glyph"><path class="cls-1" d="M14.06,28l-.94-1.09c-1.44-1.68-3.42-4-5.88-6.61-1-1.05-2.29-2.43-3.87-4l2.57-.13L17.45,28Z"/><rect class="cls-1" x="1.51" y="3.12" width="2" height="24.87"/><path class="cls-1" d="M10.13,17.44H3v-2h7.16a4.8,4.8,0,0,0,4.8-4.8v-.7a4.81,4.81,0,0,0-4.8-4.81H3v-2h7.16a6.81,6.81,0,0,1,6.8,6.81v.7A6.81,6.81,0,0,1,10.13,17.44Z"/></g></svg>