<svg xmlns="http://www.w3.org/2000/svg" viewBox="0 0 18 35"><defs><style>.cls-1{fill:#231f20;}</style></defs><g id="Artwork_glyph" data-name="Artwork glyph"><ellipse class="cls-1" cx="9.23" cy="9.18" rx="1.77" ry="1.82" transform="translate(-1.14 1.31) rotate(-7.68)"/><path class="cls-1" d="M7.46,9.26a22.82,22.82,0,0,1,0-4.19c.34-1.14,1.24-2.6,2.15-2.74a5,5,0,0,1,.93,0,4.5,4.5,0,0,1,.89.19V3a2.34,2.34,0,0,0-.33,0,1.77,1.77,0,0,0-.81.2A1.74,1.74,0,0,0,9.66,4,4.09,4.09,0,0,0,9.2,5.62a10.14,10.14,0,0,0,.2,3Z"/></g></svg>