<svg xmlns="http://www.w3.org/2000/svg" viewBox="0 0 18 35"><defs><style>.cls-1{fill:#231f20;}</style></defs><g id="Artwork_glyph" data-name="Artwork glyph"><ellipse class="cls-1" cx="6.62" cy="9.4" rx="1.77" ry="1.82" transform="translate(-1.2 0.97) rotate(-7.68)"/><path class="cls-1" d="M4.85,9.47A23.66,23.66,0,0,1,4.9,5.28c.34-1.13,1.24-2.6,2.15-2.73a4.11,4.11,0,0,1,.92,0,4.56,4.56,0,0,1,.9.18v.51a2.11,2.11,0,0,0-.33,0,1.7,1.7,0,0,0-.81.21,1.76,1.76,0,0,0-.67.77A4,4,0,0,0,6.6,5.83a10.19,10.19,0,0,0,.2,3Z"/><ellipse class="cls-1" cx="11.84" cy="9.44" rx="1.77" ry="1.82" transform="matrix(0.99, -0.13, 0.13, 0.99, -1.15, 1.67)"/><path class="cls-1" d="M10.07,9.47a23.66,23.66,0,0,1,0-4.19c.34-1.13,1.24-2.6,2.15-2.73a4.11,4.11,0,0,1,.92,0,4.56,4.56,0,0,1,.9.18v.51a2.11,2.11,0,0,0-.33,0,1.7,1.7,0,0,0-.81.21,1.76,1.76,0,0,0-.67.77,4,4,0,0,0-.46,1.67,10.19,10.19,0,0,0,.2,3Z"/></g></svg>