<svg xmlns="http://www.w3.org/2000/svg" viewBox="0 0 18 35"><defs><style>.a{fill:#231f20;}</style></defs><ellipse class="a" cx="6.23" cy="3.82" rx="1.77" ry="1.82" transform="translate(-0.45 0.87) rotate(-7.68)"/><path class="a" d="M8,3.74A23.64,23.64,0,0,1,8,7.93c-.34,1.14-1.24,2.6-2.15,2.74a4.91,4.91,0,0,1-.92,0,4.72,4.72,0,0,1-.9-.18V10a2.34,2.34,0,0,0,.33,0,1.77,1.77,0,0,0,.81-.2,1.8,1.8,0,0,0,.68-.78,4.26,4.26,0,0,0,.46-1.67,10.59,10.59,0,0,0-.21-3Z"/><ellipse class="a" cx="11.37" cy="3.74" rx="1.77" ry="1.82" transform="translate(-0.4 1.55) rotate(-7.68)"/><path class="a" d="M13.14,3.74a23.64,23.64,0,0,1-.05,4.19c-.34,1.14-1.24,2.6-2.15,2.74a4.91,4.91,0,0,1-.92,0,4.72,4.72,0,0,1-.9-.18V10a2.34,2.34,0,0,0,.33,0,1.77,1.77,0,0,0,.81-.2,1.8,1.8,0,0,0,.68-.78,4.26,4.26,0,0,0,.46-1.67,10.59,10.59,0,0,0-.21-3Z"/></svg>