<svg xmlns="http://www.w3.org/2000/svg" viewBox="0 0 18 35"><defs><style>.a{fill:#231f20;}</style></defs><path class="a" d="M8.74,25.45A1.77,1.77,0,1,0,6.91,27.5a8.34,8.34,0,0,1,0,1.47c-.11,1-.5,1.43-1.66,2A3.39,3.39,0,0,1,4,31.33v.77a4.35,4.35,0,0,0,1.89-.24,3.81,3.81,0,0,0,2.47-2.23c.39-.87.22-2.3.34-3.45h0A1.78,1.78,0,0,0,8.74,25.45Z"/><path class="a" d="M13.29,25.45a1.77,1.77,0,1,0-1.83,2.05,9.43,9.43,0,0,1,0,1.47c-.11,1-.51,1.43-1.66,2a3.45,3.45,0,0,1-1.21.34v.77a4.36,4.36,0,0,0,1.89-.24,3.76,3.76,0,0,0,2.46-2.23c.39-.87.23-2.3.34-3.45h0A2,2,0,0,0,13.29,25.45Z"/></svg>