<svg xmlns="http://www.w3.org/2000/svg" viewBox="0 0 18 35"><defs><style>.a{fill:#231f20;}</style></defs><path class="a" d="M8.85,28.87A6.23,6.23,0,0,1,4.91,27.5a8.29,8.29,0,0,1-2.63-5.39c0-.64-.09-1.3-.13-2,0-.4,0-.79,0-1.17h.57a9.35,9.35,0,0,0,.1,1.25,9.58,9.58,0,0,0,.79,2.7A7.24,7.24,0,0,0,6,26a6.51,6.51,0,0,0,6,.39,3.89,3.89,0,0,0,2.42-1.69A4.9,4.9,0,0,0,13.87,20c-1.06-1.59-2.4-1.45-4.58-2.41-.72-.32-6.45-2.94-7-7.57A7.79,7.79,0,0,1,4,4.48c2.58-3,7.3-3,9.49-.74A9.81,9.81,0,0,1,15.27,6.6a12.35,12.35,0,0,1,.86,3.24L15,9.81a11.46,11.46,0,0,0-1-2.38,8.75,8.75,0,0,0-1.54-2.1,5.2,5.2,0,0,0-7.13.54A5.47,5.47,0,0,0,4,9.63c.24,3.07,3.61,4.9,5.21,5.77,3.13,1.71,4.17.81,5.63,2.42,1.74,1.94,2.41,5.63,1.07,7.94a5.71,5.71,0,0,1-3.46,2.52A12.94,12.94,0,0,1,8.85,28.87Z"/></svg>