<svg xmlns="http://www.w3.org/2000/svg" viewBox="0 0 18 35"><defs><style>.cls-1{font-size:35px;fill:#bcbcbc;font-family:ArialMT, Arial;}.cls-2{fill:#231f20;}</style></defs><g id="Example_glyph" data-name="Example glyph"><g id="Line_1-2" data-name="Line 1"><text class="cls-1" transform="translate(-2.67 27.99)">S</text></g></g><g id="Artwork_glyph" data-name="Artwork glyph"><path class="cls-2" d="M8.67,28.87A7.59,7.59,0,0,1,4.24,27.5a7.88,7.88,0,0,1-3-5.39c-.05-.64-.1-1.3-.14-2,0-.4,0-.79-.07-1.17h.65a9.62,9.62,0,0,0,.11,1.25,8.9,8.9,0,0,0,.89,2.7A7.53,7.53,0,0,0,5.5,26a8.17,8.17,0,0,0,6.73.39A4.38,4.38,0,0,0,15,24.65c.84-1.44.26-3.42-.63-4.61-1.2-1.59-2.7-1.45-5.16-2.41-.81-.32-7.26-2.94-7.91-7.57a7.27,7.27,0,0,1,2-5.58c2.9-3,8.21-3,10.68-.74a9.69,9.69,0,0,1,2,2.86,11.12,11.12,0,0,1,1,3.24l-1.29,0a11,11,0,0,0-1.14-2.38,8.72,8.72,0,0,0-1.73-2.1,6.39,6.39,0,0,0-8,.54A5.07,5.07,0,0,0,3.2,9.63c.27,3.07,4.06,4.9,5.86,5.77,3.53,1.71,4.7.81,6.34,2.42,2,1.94,2.72,5.63,1.21,7.94a6.44,6.44,0,0,1-3.9,2.52A16.15,16.15,0,0,1,8.67,28.87Z"/></g></svg>