<svg xmlns="http://www.w3.org/2000/svg" viewBox="0 0 18 35"><defs><style>.a{fill:#231f20;}</style></defs><path class="a" d="M8.85,28.87A5.22,5.22,0,0,1,5.31,27.5a8.65,8.65,0,0,1-2.37-5.39c0-.64-.08-1.3-.12-2,0-.4,0-.79,0-1.17h.52a9.1,9.1,0,0,0,.09,1.25,10.28,10.28,0,0,0,.71,2.7,7.28,7.28,0,0,0,2.23,3,5.34,5.34,0,0,0,5.37.39,3.49,3.49,0,0,0,2.18-1.69,5.35,5.35,0,0,0-.5-4.61c-1-1.59-2.16-1.45-4.13-2.41-.64-.32-5.8-2.94-6.32-7.57a8.31,8.31,0,0,1,1.6-5.58c2.32-3,6.56-3,8.53-.74A10.12,10.12,0,0,1,14.63,6.6a13.33,13.33,0,0,1,.78,3.24l-1,0a12,12,0,0,0-.9-2.38,8.76,8.76,0,0,0-1.39-2.1,4.35,4.35,0,0,0-6.41.54A5.77,5.77,0,0,0,4.48,9.63c.21,3.07,3.25,4.9,4.69,5.77,2.81,1.71,3.75.81,5.06,2.42a8.16,8.16,0,0,1,1,7.94,5.19,5.19,0,0,1-3.12,2.52A10.51,10.51,0,0,1,8.85,28.87Z"/></svg>