<svg xmlns="http://www.w3.org/2000/svg" viewBox="0 0 18 35"><defs><style>.a{fill:#231f20;}.b{fill:none;stroke:#231f20;stroke-miterlimit:10;stroke-width:2px;}</style></defs><path class="a" d="M11.67,27.07a8.2,8.2,0,0,1-3.8-.85c-2.07-1-4.7-3.3-5.49-8.63a14.61,14.61,0,0,1,0-3.84A12.64,12.64,0,0,1,4.07,8,8.4,8.4,0,0,1,8.15,4.23,6.68,6.68,0,0,1,14,4.47a6.13,6.13,0,0,1,2.37,2.8l-1.17.13a4.4,4.4,0,0,0-1.42-1.34,5.53,5.53,0,0,0-4.81,0A7.08,7.08,0,0,0,5.77,9a10.7,10.7,0,0,0-1.4,5,12.6,12.6,0,0,0,0,3.34c.12.82.79,5.35,4.38,7.12.18.09,3.55,1.69,5.61,0a3.82,3.82,0,0,0,1.17-1.84h.87a4.41,4.41,0,0,1-.92,3.05A5,5,0,0,1,11.67,27.07Z"/><line class="b" x1="0.87" y1="12.98" x2="16.55" y2="12.98"/><path class="b" d="M1,17.44l15.55.06"/></svg>