<svg xmlns="http://www.w3.org/2000/svg" viewBox="0 0 18 35"><defs><style>.a{fill:#231f20;stroke:#231f20;stroke-miterlimit:10;}</style></defs><rect class="a" x="9.36" y="3.45" width="0.95" height="12.81"/><path class="a" d="M12.94,10.39a36.35,36.35,0,0,0-1.5-4.07c-.1-.21-.21-.45-.36-.72s-.14-.25-.17-.29c-.39-.64-.64-1.06-1-1.1a.6.6,0,0,0-.28,0l0-.79,1.1,0c.14.22.33.53.54.89a12.56,12.56,0,0,1,.9,1.76c.22.58.5,1.35.76,2.3.17-.71.38-1.47.65-2.27a27.33,27.33,0,0,1,1.05-2.68l1.07,0-.05.69a4.75,4.75,0,0,0-.41.36,4,4,0,0,0-.9,1.73C13.69,7.88,13.17,9.61,12.94,10.39Z"/><polygon class="a" points="15.3 16.3 15.17 3.46 16.13 3.45 16.26 16.29 15.3 16.3"/><rect class="a" x="1.58" y="3.45" width="5.82" height="1.03"/><rect class="a" x="4.3" y="3.96" width="0.82" height="12.12"/></svg>