<svg xmlns="http://www.w3.org/2000/svg" viewBox="0 0 18 35"><defs><style>.a{fill:#231f20;}</style></defs><path class="a" fill-rule="evenodd" d="M9,16.2c-1.4-2-2.7-3-4.1-3-1.7,0-2.9,1.4-2.9,3.4S3.2,20,4.9,20c1.4,0,2.7-1,4.1-3,1.4,2,2.7,3,4.1,3,1.7,0,2.9-1.4,2.9-3.4s-1.2-3.4-2.9-3.4C11.7,13.2,10.4,14.2,9,16.2ZM7.6,16.6c-1,1.1-1.8,1.6-2.6,1.6-.8,0-1.3-.6-1.3-1.6S4.2,15,5,15C5.8,15,6.6,15.5,7.6,16.6ZM10.4,16.6c1,1.1,1.8,1.6,2.6,1.6.8,0,1.3-.6,1.3-1.6S13.8,15,13,15C12.2,15,11.4,15.5,10.4,16.6Z"/></svg>
