<svg xmlns="http://www.w3.org/2000/svg" viewBox="0 0 18 35"><defs><style>.a{fill:#231f20;}</style></defs><path class="a" d="M2.5,12.8c1.2-1.8,2.6-2.7,4.1-2.7,1,0,1.9.3,3.1,1.1,1,.6,1.7.9,2.4.9.9,0,1.8-.6,2.7-1.8l.8,2.1c-1.1,1.6-2.4,2.4-3.8,2.4-1,0-1.9-.3-3.1-1.1-1-.6-1.8-.9-2.5-.9-1,0-1.9.7-2.9,2.1Z"/><path class="a" d="M2.5,20.5c1.2-1.8,2.6-2.7,4.1-2.7,1,0,1.9.3,3.1,1.1,1,.6,1.7.9,2.4.9.9,0,1.8-.6,2.7-1.8l.8,2.1c-1.1,1.6-2.4,2.4-3.8,2.4-1,0-1.9-.3-3.1-1.1-1-.6-1.8-.9-2.5-.9-1,0-1.9.7-2.9,2.1Z"/></svg>
