<svg xmlns="http://www.w3.org/2000/svg" viewBox="0 0 18 35"><defs><style>.a{fill:#231f20;}</style></defs><rect class="a" x="1" y="1" width="2" height="2"/><rect class="a" x="6" y="1" width="2" height="2"/><rect class="a" x="11" y="1" width="2" height="2"/><rect class="a" x="16" y="1" width="2" height="2"/><rect class="a" x="3.5" y="5" width="2" height="2"/><rect class="a" x="8.5" y="5" width="2" height="2"/><rect class="a" x="13.5" y="5" width="2" height="2"/><rect class="a" x="1" y="9" width="2" height="2"/><rect class="a" x="6" y="9" width="2" height="2"/><rect class="a" x="11" y="9" width="2" height="2"/><rect class="a" x="16" y="9" width="2" height="2"/><rect class="a" x="3.5" y="13" width="2" height="2"/><rect class="a" x="8.5" y="13" width="2" height="2"/><rect class="a" x="13.5" y="13" width="2" height="2"/><rect class="a" x="1" y="17" width="2" height="2"/><rect class="a" x="6" y="17" width="2" height="2"/><rect class="a" x="11" y="17" width="2" height="2"/><rect class="a" x="16" y="17" width="2" height="2"/><rect class="a" x="3.5" y="21" width="2" height="2"/><rect class="a" x="8.5" y="21" width="2" height="2"/><rect class="a" x="13.5" y="21" width="2" height="2"/><rect class="a" x="1" y="25" width="2" height="2"/><rect class="a" x="6" y="25" width="2" height="2"/><rect class="a" x="11" y="25" width="2" height="2"/><rect class="a" x="16" y="25" width="2" height="2"/><rect class="a" x="3.5" y="29" width="2" height="2"/><rect class="a" x="8.5" y="29" width="2" height="2"/><rect class="a" x="13.5" y="29" width="2" height="2"/><rect class="a" x="1" y="33" width="2" height="2"/><rect class="a" x="6" y="33" width="2" height="2"/><rect class="a" x="11" y="33" width="2" height="2"/><rect class="a" x="16" y="33" width="2" height="2"/></svg>
