<svg xmlns="http://www.w3.org/2000/svg" viewBox="0 0 18 35"><defs><style>.a{fill:#231f20;}</style></defs><rect class="a" x="0" y="0" width="18" height="35"/><rect x="2" y="2" width="1.5" height="1.5" fill="#fff"/><rect x="10" y="2" width="1.5" height="1.5" fill="#fff"/><rect x="6" y="7" width="1.5" height="1.5" fill="#fff"/><rect x="14" y="7" width="1.5" height="1.5" fill="#fff"/><rect x="2" y="12" width="1.5" height="1.5" fill="#fff"/><rect x="10" y="12" width="1.5" height="1.5" fill="#fff"/><rect x="6" y="17" width="1.5" height="1.5" fill="#fff"/><rect x="14" y="17" width="1.5" height="1.5" fill="#fff"/><rect x="2" y="22" width="1.5" height="1.5" fill="#fff"/><rect x="10" y="22" width="1.5" height="1.5" fill="#fff"/><rect x="6" y="27" width="1.5" height="1.5" fill="#fff"/><rect x="14" y="27" width="1.5" height="1.5" fill="#fff"/><rect x="2" y="32" width="1.5" height="1.5" fill="#fff"/><rect x="10" y="32" width="1.5" height="1.5" fill="#fff"/></svg>
