<svg xmlns="http://www.w3.org/2000/svg" viewBox="0 0 18 35"><defs><style>.a{fill:#231f20;}</style></defs><path class="a" d="M15,25.73c-.18-.38-.33-.73-.49-1.09a12.1,12.1,0,0,0,.15-1.94l0-.78c0-.63.06-1.27.08-1.91s.06-1.4.1-2.11a15.41,15.41,0,0,0-.1-3.23c0-.13-.15-.62-.19-.87l0-.13a2.22,2.22,0,0,0-.15-.54,7.54,7.54,0,0,0-2.7-2.93C9.32,8.9,4.81,9.1,3.2,12.28a6.39,6.39,0,0,0-.56,3.49l1.2.1a4.84,4.84,0,0,1,.53-2.57c1.4-2.5,5.08-2.24,6.59-1.41A5.65,5.65,0,0,1,12.9,14l0,.25c.05.28.17.82.21,1a15.38,15.38,0,0,1,.09,2.42s0,0,0-.09A2.05,2.05,0,0,0,13,17c-.14-.23-8.81.91-10.06,3.17a5.45,5.45,0,0,0-.69,2.93,5.87,5.87,0,0,0,2.63,4.3,6.18,6.18,0,0,0,3.5,1,7.41,7.41,0,0,0,2.79-.55,6.43,6.43,0,0,0,2.21-1.42l.16.23a2.69,2.69,0,0,0,1.42.82h.89C15.55,26.9,15.25,26.33,15,25.73Zm-4.34.33a5.32,5.32,0,0,1-4.91-.32,4,4,0,0,1-1.84-2.82,3,3,0,0,1,.41-1.73c.78-1.29,2.67-1.5,5.92-1.75.77-.05,1.55-.08,2.31-.08h.62c0,.19,0,.38,0,.56,0,.63,0,1.26-.09,1.89l0,.77c-.05,1-.07,1.37-.08,1.52A3.89,3.89,0,0,1,10.62,26.06Z"/></svg>