<svg xmlns="http://www.w3.org/2000/svg" viewBox="0 0 18 35"><defs><style>.cls-1{font-size:35px;fill:#bcbcbc;font-family:ArialMT, Arial;}.cls-2{fill:#231f20;}</style></defs><g id="Example_glyph" data-name="Example glyph"><g id="Line_2-2" data-name="Line 2"><text class="cls-1" transform="translate(-0.73 27.99)">a</text></g></g><g id="Artwork_glyph" data-name="Artwork glyph"><path class="cls-2" d="M8.67,28.38a8.8,8.8,0,0,1-4.28-1c-.91-.51-3-2-3.23-4.3A4.69,4.69,0,0,1,2,20.12c1.53-2.26,12.13-3.4,12.3-3.17a1.77,1.77,0,0,1,.28.54c0,.06,0,.09,0,.09a12.69,12.69,0,0,0-.11-2.42c0-.14-.19-.68-.26-1l0-.25a6.4,6.4,0,0,0-2.38-2.06c-1.84-.83-6.35-1.09-8,1.41a4.09,4.09,0,0,0-.65,2.57l-1.47-.1a5.4,5.4,0,0,1,.68-3.49C4.32,9.1,9.83,8.9,12.7,10.2A8.33,8.33,0,0,1,16,13.13a2,2,0,0,1,.18.54l0,.13c.05.25.19.74.23.87a12.4,12.4,0,0,1,.13,3.23c0,.71-.09,1.41-.12,2.11s-.06,1.28-.11,1.91l-.05.78a7.55,7.55,0,0,1-.2,2,6.17,6.17,0,0,1-4,3.13A10.86,10.86,0,0,1,8.67,28.38Zm5.06-9c-.94,0-1.88,0-2.82.08-4,.25-6.29.46-7.25,1.75a2.64,2.64,0,0,0-.5,1.73c.11,1.46,1.62,2.46,2.26,2.82a7.79,7.79,0,0,0,6,.32,4.55,4.55,0,0,0,2.78-2c0-.15,0-.52.11-1.52l0-.77c0-.63.07-1.26.1-1.89l0-.56Z"/><path class="cls-2" d="M16.71,27.46A3.54,3.54,0,0,1,15,26.64a3.2,3.2,0,0,1-1-1.79L15.77,24c.29.56.61,1.13,1,1.73s.71,1.17,1.07,1.72Z"/></g></svg>