<svg xmlns="http://www.w3.org/2000/svg" viewBox="0 0 18 35"><defs><style>.cls-1{font-size:35px;fill:#bcbcbc;font-family:ArialMT, Arial;}.cls-2{fill:#231f20;}</style></defs><g id="Example_glyph" data-name="Example glyph"><g id="Line_2-2" data-name="Line 2"><text class="cls-1" transform="translate(-0.73 27.99)">b</text></g></g><g id="Artwork_glyph" data-name="Artwork glyph"><path class="cls-2" d="M6.24,27.5C5,26.91,4.71,26.16,4,26.27s-1.21,1-1.49,1.72H1.66l.18-25h2v7.38c.35,0,.88-.08,1.53-.17,2.26-.31,2.66-.67,4-.7a7.2,7.2,0,0,1,3.07.61,6.79,6.79,0,0,1,2.41,1.86c2.3,2.65,2.63,7,1.65,10.5-.38,1.32-1,3.54-3.07,4.75a7,7,0,0,1-3,.76A7.3,7.3,0,0,1,6.24,27.5Zm-2.4-4.6c.83.82,3.33,3.08,6.44,3a4.15,4.15,0,0,0,2.09-.5c1.37-.8,1.84-2.46,2.15-3.57.27-.93,1.46-5.74-1.19-8.59A5,5,0,0,0,11.5,12a5.46,5.46,0,0,0-3.66,0,7.08,7.08,0,0,0-4,3.51Z"/><path class="cls-2" d="M4.21,26.53,3,28"/></g></svg>