<svg xmlns="http://www.w3.org/2000/svg" viewBox="0 0 18 35"><defs><style>.a{fill:#231f20;}</style></defs><path class="a" d="M6.63,27.5c-1.08-.59-1.37-1.34-2-1.23s-1.09,1-1.34,1.72H2.52l.16-25h1.8v7.38c.31,0,.79-.08,1.37-.17,2-.31,2.38-.67,3.54-.7a5.94,5.94,0,0,1,2.76.61,6.29,6.29,0,0,1,2.16,1.86c2.06,2.65,2.36,7,1.48,10.5-.34,1.32-.91,3.54-2.76,4.75a5.73,5.73,0,0,1-2.65.76A5.93,5.93,0,0,1,6.63,27.5ZM4.48,22.9c.75.82,3,3.08,5.78,3a3.43,3.43,0,0,0,1.87-.5c1.23-.8,1.65-2.46,1.93-3.57.24-.93,1.31-5.74-1.07-8.59A4.42,4.42,0,0,0,11.35,12a4.42,4.42,0,0,0-3.28,0,6.63,6.63,0,0,0-3.59,3.51Z"/><path class="a" d="M4.21,26.53,3,28"/></svg>