<svg xmlns="http://www.w3.org/2000/svg" viewBox="0 0 18 35"><defs><style>.a{fill:#231f20;}</style></defs><path class="a" d="M6.51,27.5c-1.14-.59-1.44-1.34-2.13-1.23S3.24,27.28,3,28H2.19l.17-25H4.24v7.38c.33,0,.84-.08,1.45-.17,2.13-.31,2.5-.67,3.71-.7a6.44,6.44,0,0,1,2.89.61,6.44,6.44,0,0,1,2.27,1.86c2.17,2.65,2.48,7,1.55,10.5-.35,1.32-.95,3.54-2.89,4.75a6.26,6.26,0,0,1-2.78.76A6.48,6.48,0,0,1,6.51,27.5ZM4.24,22.9c.79.82,3.14,3.08,6.07,3a3.66,3.66,0,0,0,2-.5c1.29-.8,1.74-2.46,2-3.57.25-.93,1.37-5.74-1.12-8.59A4.64,4.64,0,0,0,11.46,12a4.87,4.87,0,0,0-3.45,0,6.85,6.85,0,0,0-3.77,3.51Z"/><path class="a" d="M4.21,26.53,3,28"/></svg>