<svg xmlns="http://www.w3.org/2000/svg" viewBox="0 0 18 35"><defs><style>.a{fill:#231f20;}</style></defs><path class="a" d="M9.43,28.5c-3.54,0-5.69-3.25-6.27-4.13a10.38,10.38,0,0,1-1.29-7.95A8.79,8.79,0,0,1,5.6,10.78c.63-.4,4.08-2.44,7.27-.62A7,7,0,0,1,16,15l-.68.05A6.27,6.27,0,0,0,12,11.94a6.36,6.36,0,0,0-5.31.54A6.92,6.92,0,0,0,3.81,16.9a8.33,8.33,0,0,0,1,6.37c.4.62,2.11,3.24,4.73,3.23a5.68,5.68,0,0,0,3.59-1.65,8.08,8.08,0,0,0,2.29-3.17l.78-.05A7.56,7.56,0,0,1,14.44,26,7,7,0,0,1,9.43,28.5Z"/></svg>